<svg xmlns="http://www.w3.org/2000/svg" xmlns:xlink="http://www.w3.org/1999/xlink" width="161.795" height="281.614" viewBox="0 0 161.795 281.614"><defs><style>.a{fill:none;}.b{clip-path:url(#a);}.c{fill:#1b81bb;}</style><clipPath id="a"><path class="a" d="M0,200.833H161.8V-80.781H0Z" transform="translate(0 80.781)"/></clipPath></defs><g class="b" transform="translate(0 0)"><g transform="translate(1.192 198.36)"><path class="c" d="M27.5,42.652c-2.792-4.1-9.876-16.116-15.838-26.087-1.583-2.514-2.7-3.071-4.1-2.883V30.541c0,7.732.746,8.478,6.986,9.036v3.075H-10.972V39.577c6.055-.558,6.9-1.3,6.9-9.036V-5.045c0-7.732-.652-8.478-6.986-9.04v-3.071H14.09v3.071c-5.965.561-6.523,1.307-6.523,9.04V10.7a15.264,15.264,0,0,0,5.682-4.1c4.379-4.469,8.663-10.525,12.2-15.743,1.956-2.887,1.862-4.284-2.05-4.752l-1.4-.188v-3.071H43.715v3.071c-5.5.561-8.572,1.4-13.6,6.617-4.755,5.031-8.2,9.5-11.368,13.509,4.846,8.29,10.992,18.166,17.326,27.112,3.263,4.654,5.219,5.961,8.851,6.425v3.075Z" transform="translate(11.063 17.156)"/></g><g transform="translate(60.625 197.147)"><path class="c" d="M35.278,32.954A109.593,109.593,0,0,1,30.9,46.742C28.571,47.3,21.675,48.98,16,48.98c-21.8,0-30.187-15.653-30.187-30.187,0-18.818,12.578-32.048,32.421-32.048,5.867,0,11.644,1.492,14.067,1.959.652,5.031,1.119,9.315,1.677,14.345L30.806,3.8C27.825-6.359,22.516-9.528,16.366-9.528,5.932-9.528-.775,3.05-.775,16.928c0,16.772,7.547,28.231,17.7,28.231,6.613,0,11.271-5.031,15.182-13.324Z" transform="translate(14.19 13.255)"/></g><g transform="translate(113.447 196.031)"><path class="c" d="M32.288,12.224c-1.025-4.657-2.05-7.453-3.444-9.036s-3.73-2.05-7.457-2.05H17.2V45.2c0,7.638.652,8.384,8.011,8.942V57.22H-2.459V54.145c7.077-.558,7.729-1.3,7.729-8.942V1.138H1.916c-5.125,0-7.077.652-8.478,2.423-1.3,1.583-2.235,4.657-3.26,8.757h-3.165c.37-6.15.931-12.578,1.025-17.235h2.235C-8.33-2.961-7.3-2.588-4.791-2.588H27.442A5.057,5.057,0,0,0,32.2-4.917h2.325c.094,3.817.467,11.274.84,16.953Z" transform="translate(12.987 4.917)"/></g><g transform="translate(0.001 268.548)"><path class="c" d="M4.863,4.2c2.074.279,3.511,1.258,3.511,3.092a3.347,3.347,0,0,1-1.715,2.974,8.062,8.062,0,0,1-3.988.858H-1.956v-.662c1.433-.119,1.572-.3,1.572-1.931V.906C-.384-.729-.5-.911-1.858-1.029v-.659H3.486a5.2,5.2,0,0,1,3.11.7,2.56,2.56,0,0,1,1.1,2.193c0,1.834-1.5,2.653-2.831,2.932ZM2.569,3.96c1.736,0,2.475-.722,2.475-2.416,0-1.774-1-2.454-2-2.454a1.1,1.1,0,0,0-.736.2c-.139.119-.2.418-.2.938V3.96Zm-.46,4.584c0,1.356.321,1.774,1.279,1.774,1.014,0,2.193-.8,2.193-2.831C5.581,5.65,4.5,4.733,2.51,4.733h-.4Z" transform="translate(1.956 1.688)"/></g><g transform="translate(11.707 268.549)"><path class="c" d="M8.818.47C7.8.512,7.4.867,7.323,1.547a20.081,20.081,0,0,0-.16,2.911V6.592c0,1.977-.258,3.692-1.255,4.849a4.491,4.491,0,0,1-3.35,1.433A4.814,4.814,0,0,1-.678,11.859C-1.671,11-2.09,9.666-2.09,7.372V2.464C-2.09.749-2.229.588-3.547.47V-.189h5.4V.47C.6.588.462.749.462,2.464V7.289c0,2.813.9,4.25,2.813,4.25,1.973,0,2.928-1.516,2.928-4.745V4.458a24.284,24.284,0,0,0-.139-2.911C5.967.888,5.587.529,4.269.47V-.189H8.818Z" transform="translate(3.547 0.189)"/></g><g transform="translate(24.91 268.292)"><path class="c" d="M4.85,2.417c-.418-1.238-1-2.632-2.514-2.632A1.8,1.8,0,0,0,.6,1.719c0,1.136.7,1.774,2.235,2.632,1.917,1.035,3.273,2.134,3.273,4.11,0,2.172-1.757,3.887-4.529,3.887a6.843,6.843,0,0,1-1.8-.241,7.652,7.652,0,0,1-1.178-.439A19.958,19.958,0,0,1-1.951,8.5l.68-.22c.4,1.217,1.394,3.291,3.19,3.291A1.822,1.822,0,0,0,3.752,9.556C3.752,8.42,3,7.642,1.6,6.827c-1.8-1.021-3.253-2.137-3.253-4.051C-1.651.7-.135-.972,2.616-.972A8.46,8.46,0,0,1,5.15-.5c.059.76.2,1.618.377,2.8Z" transform="translate(1.951 0.972)"/></g><g transform="translate(34.284 268.549)"><path class="c" d="M0,9.132V8.473c1.314-.119,1.475-.3,1.475-1.893V-1.079C1.475-2.735,1.335-2.9,0-3.014v-.659H5.5v.659C4.149-2.9,4.03-2.735,4.03-1.079V6.58c0,1.576.139,1.774,1.475,1.893v.659Z" transform="translate(0 3.673)"/></g><g transform="translate(40.788 268.549)"><path class="c" d="M8.945.455C7.927.5,7.568.793,7.491,1.511A24.792,24.792,0,0,0,7.31,4.865V12.82h-1L-.767,3.146H-.83V7.514a31.425,31.425,0,0,0,.16,3.291c.1.76.418,1.119,1.8,1.178v.638H-3.42v-.638c1.056-.059,1.436-.4,1.513-1.157a24.48,24.48,0,0,0,.181-3.312V3.348c0-1.318,0-1.677-.321-2.116A1.8,1.8,0,0,0-3.6.455V-.183H-.189l6.5,8.538h.08V4.865a24.746,24.746,0,0,0-.181-3.333C6.114.814,5.734.514,4.458.455V-.183H8.945Z" transform="translate(3.598 0.183)"/></g><g transform="translate(54.086 268.551)"><path class="c" d="M7.071,6.911c-.119.777-.478,2.534-.638,3.11H-2.844V9.366c1.478-.139,1.656-.241,1.656-1.876V-.27c0-1.635-.178-1.736-1.433-1.855V-2.78H5.972c.021.335.122,1.712.2,2.852l-.68.077a4.115,4.115,0,0,0-.7-1.593c-.279-.359-.8-.54-2.015-.54H2.064c-.617,0-.7.063-.7.722V2.923H2.5c1.576,0,1.757-.08,2.053-1.478h.68V5.357h-.68c-.3-1.415-.457-1.5-2.053-1.5H1.367V7.469c0,.938.1,1.377.418,1.558a3.827,3.827,0,0,0,1.555.2c1.056,0,1.635-.139,2.053-.638a6.283,6.283,0,0,0,1-1.837Z" transform="translate(2.844 2.78)"/></g><g transform="translate(64.898 268.292)"><path class="c" d="M4.85,2.417c-.418-1.238-1-2.632-2.514-2.632A1.8,1.8,0,0,0,.6,1.719c0,1.136.7,1.774,2.235,2.632,1.917,1.035,3.273,2.134,3.273,4.11,0,2.172-1.757,3.887-4.529,3.887a6.843,6.843,0,0,1-1.8-.241,7.652,7.652,0,0,1-1.178-.439A19.958,19.958,0,0,1-1.951,8.5l.68-.22c.4,1.217,1.394,3.291,3.19,3.291A1.822,1.822,0,0,0,3.752,9.556C3.752,8.42,3,7.642,1.6,6.827c-1.8-1.021-3.253-2.137-3.253-4.051C-1.651.7-.135-.972,2.616-.972A8.46,8.46,0,0,1,5.15-.5c.059.76.2,1.618.377,2.8Z" transform="translate(1.951 0.972)"/></g><g transform="translate(74.292 268.292)"><path class="c" d="M4.85,2.417c-.418-1.238-1-2.632-2.514-2.632A1.8,1.8,0,0,0,.6,1.719c0,1.136.7,1.774,2.235,2.632,1.917,1.035,3.273,2.134,3.273,4.11,0,2.172-1.757,3.887-4.529,3.887a6.843,6.843,0,0,1-1.8-.241,7.652,7.652,0,0,1-1.178-.439A19.958,19.958,0,0,1-1.951,8.5l.68-.22c.4,1.217,1.394,3.291,3.19,3.291A1.822,1.822,0,0,0,3.752,9.556C3.752,8.42,3,7.642,1.6,6.827c-1.8-1.021-3.253-2.137-3.253-4.051C-1.651.7-.135-.972,2.616-.972A8.507,8.507,0,0,1,5.15-.5c.059.76.2,1.618.377,2.8Z" transform="translate(1.951 0.972)"/></g><g transform="translate(87.575 268.292)"><path class="c" d="M4.85,2.417c-.418-1.238-1-2.632-2.514-2.632A1.8,1.8,0,0,0,.6,1.719c0,1.136.7,1.774,2.235,2.632,1.917,1.035,3.273,2.134,3.273,4.11,0,2.172-1.757,3.887-4.529,3.887a6.843,6.843,0,0,1-1.8-.241,7.652,7.652,0,0,1-1.178-.439A19.958,19.958,0,0,1-1.951,8.5l.68-.22c.4,1.217,1.394,3.291,3.19,3.291A1.822,1.822,0,0,0,3.752,9.556C3.752,8.42,3,7.642,1.6,6.827c-1.8-1.021-3.253-2.137-3.253-4.051C-1.651.7-.135-.972,2.616-.972A8.46,8.46,0,0,1,5.15-.5c.059.76.2,1.618.377,2.8Z" transform="translate(1.951 0.972)"/></g><g transform="translate(97.009 268.289)"><path class="c" d="M7.553,7.056A23.175,23.175,0,0,1,6.615,10a14.882,14.882,0,0,1-3.19.481c-4.668,0-6.463-3.35-6.463-6.463A6.522,6.522,0,0,1,3.9-2.838a15.091,15.091,0,0,1,3.012.418c.139,1.081.241,2,.359,3.075l-.68.157C5.956-1.363,4.82-2.04,3.505-2.04,1.271-2.04-.165.655-.165,3.625c0,3.591,1.614,6.045,3.789,6.045,1.415,0,2.412-1.077,3.253-2.852Z" transform="translate(3.038 2.838)"/></g><g transform="translate(108.477 268.549)"><path class="c" d="M9.032.47c-1.4.119-1.537.237-1.537,1.855v7.76c0,1.593.16,1.733,1.5,1.872v.659H3.426v-.659c1.356-.119,1.516-.279,1.516-1.855V6.3H.495V10.1c0,1.6.16,1.736,1.457,1.855v.659H-3.574v-.659c1.335-.119,1.516-.258,1.516-1.855V2.325C-2.057.707-2.239.588-3.633.47V-.189H1.893V.47C.655.588.495.707.495,2.325V5.319H4.943V2.325C4.943.707,4.783.588,3.489.47V-.189H9.032Z" transform="translate(3.633 0.189)"/></g><g transform="translate(122.516 268.291)"><path class="c" d="M8.237,4.679c0,4.208-2.534,6.763-5.8,6.763-3.469,0-5.745-2.834-5.745-6.624,0-3.27,1.917-6.7,5.944-6.7C5.8-1.882,8.237.729,8.237,4.679M-.4,4.4c0,3.389,1.035,6.261,3.131,6.261,1.534,0,2.594-1.872,2.594-5.463,0-3.87-1.077-6.3-2.995-6.3C.658-1.1-.4,1.228-.4,4.4" transform="translate(3.313 1.882)"/></g><g transform="translate(135.563 268.291)"><path class="c" d="M8.234,4.679c0,4.208-2.534,6.763-5.8,6.763-3.469,0-5.742-2.834-5.742-6.624,0-3.27,1.914-6.7,5.94-6.7C5.8-1.882,8.234.729,8.234,4.679M-.4,4.4c0,3.389,1.035,6.261,3.131,6.261,1.534,0,2.594-1.872,2.594-5.463,0-3.87-1.077-6.3-2.995-6.3C.655-1.1-.4,1.228-.4,4.4" transform="translate(3.312 1.882)"/></g><g transform="translate(148.366 268.548)"><path class="c" d="M6.785,6.857c-.139.777-.5,2.691-.638,3.193H-2.729V9.391c1.516-.122,1.673-.279,1.673-1.876V-.164c0-1.673-.157-1.813-1.5-1.935v-.659H3V-2.1c-1.356.122-1.5.261-1.5,1.935V7.575c0,.938.08,1.335.436,1.516a3.736,3.736,0,0,0,1.36.16A2.3,2.3,0,0,0,5.15,8.61a6.711,6.711,0,0,0,.976-1.935Z" transform="translate(2.729 2.758)"/></g><g transform="translate(42.304 38.773)"><path class="c" d="M14.018,3.546A38.589,38.589,0,1,0,66.582,18.23,38.59,38.59,0,0,0,14.018,3.546M5.191,16.933c7.387-3.643,20.763-3.87,26.6,1.29V56.7c-5.682-4.957-19.355-4.776-26.6-1.29Zm32.285,43.9c-1.74.4-2.806,2.029-4.389,2.071-2.311.059-3.312-1.548-4.654-2.071H5.707c5.916-3.151,15.053-5.675,21.7-2.06,1.7.924,3.549,3.354,5.424,3.357,1.956,0,4.208-2.768,5.937-3.615,6.829-3.368,14.924-.544,21.694,2.064-6.962,1.6-16.34-1.241-22.984.254m23.246-5.417c-7.377-3.73-21.747-3.28-26.861,1.29.059-13.8-.007-23.8,0-38.222,5.627-5.553,19.334-5.149,26.861-1.555Z" transform="translate(5.638 1.426)"/></g><g transform="translate(10.607 -0.001)"><path class="c" d="M99.534,7.615C53.357-7.5,7.176-5.719-39,7.615c0,69.165-15,124.835,69.27,166.449C114.389,133.792,99.534,76.707,99.534,7.615M69.526,91.84c2.51,1.447,2.454,4.849,4.884,7.955-3.908-.547-6.826,1.2-9.332-.248a3.666,3.666,0,0,1-.425-.307,42.143,42.143,0,0,1-9.451,9.472,3.614,3.614,0,0,1,.3.411c1.447,2.51-.3,5.428.251,9.332-3.11-2.426-6.509-2.374-7.959-4.881a3.375,3.375,0,0,1-.206-.46,42.138,42.138,0,0,1-12.927,3.469,3.958,3.958,0,0,1,.049.5c0,2.9-2.974,4.549-4.448,8.2-1.478-3.653-4.452-5.306-4.452-8.2a3.628,3.628,0,0,1,.052-.523,42.849,42.849,0,0,1-12.916-3.476,3.8,3.8,0,0,1-.22.492c-1.45,2.507-4.849,2.454-7.959,4.881.554-3.9-1.2-6.822.248-9.332a3.98,3.98,0,0,1,.31-.425,42.143,42.143,0,0,1-9.472-9.451,3.675,3.675,0,0,1-.415.3c-2.507,1.447-5.424-.3-9.332.248,2.426-3.106,2.374-6.509,4.884-7.955a3.927,3.927,0,0,1,.46-.209A42.238,42.238,0,0,1-12.026,78.7a3.323,3.323,0,0,1-.5.052c-2.893,0-4.553-2.97-8.206-4.448,3.653-1.475,5.313-4.448,8.206-4.448a3.625,3.625,0,0,1,.519.052,42.719,42.719,0,0,1,3.479-12.92,3.648,3.648,0,0,1-.492-.223c-2.51-1.443-2.458-4.846-4.884-7.952,3.908.547,6.826-1.2,9.332.248a3.666,3.666,0,0,1,.425.307A42.231,42.231,0,0,1,5.314,39.9a3.672,3.672,0,0,1-.3-.415c-1.443-2.507.307-5.424-.248-9.329,3.11,2.426,6.509,2.374,7.959,4.884a3.375,3.375,0,0,1,.206.46,42.264,42.264,0,0,1,12.93-3.472,3.322,3.322,0,0,1-.052-.5c0-2.9,2.974-4.549,4.452-8.2,1.475,3.653,4.448,5.306,4.448,8.2a3.626,3.626,0,0,1-.052.523A42.821,42.821,0,0,1,47.57,35.525a3.569,3.569,0,0,1,.22-.488c1.45-2.51,4.849-2.458,7.959-4.884-.547,3.9,1.2,6.822-.251,9.329a3.616,3.616,0,0,1-.307.429,42.143,42.143,0,0,1,9.472,9.451,4.167,4.167,0,0,1,.415-.3c2.507-1.447,5.424.3,9.332-.248-2.43,3.106-2.374,6.509-4.884,7.952a3.228,3.228,0,0,1-.464.209,42.166,42.166,0,0,1,3.472,12.93,4.025,4.025,0,0,1,.5-.049c2.894,0,4.553,2.974,8.206,4.448-3.653,1.478-5.313,4.448-8.206,4.448a3.681,3.681,0,0,1-.523-.052,42.619,42.619,0,0,1-3.476,12.916,4.142,4.142,0,0,1,.492.223" transform="translate(40.036 3.063)"/></g></g></svg>