<svg xmlns="http://www.w3.org/2000/svg" xmlns:xlink="http://www.w3.org/1999/xlink" width="167.938" height="271.628" viewBox="0 0 167.938 271.628"><defs><style>.a,.e{fill:none;}.b{clip-path:url(#a);}.c{fill:#2c5f50;}.d{fill:#fff;}.e{stroke:#7a9a90;stroke-width:0.762px;}</style><clipPath id="a"><path class="a" d="M0,59.338H167.938V-212.29H0Z" transform="translate(0 212.29)"/></clipPath></defs><g transform="translate(0 212.29)"><g class="b" transform="translate(0 -212.29)"><g transform="translate(3.699 0)"><path class="c" d="M.258,2.37c52.733-13.546,105.469-15.352,158.2,0,0,70.19,16.963,128.187-79.1,169.1C-16.876,129.193.258,72.637.258,2.37" transform="translate(0.923 8.478)"/></g><g transform="translate(23.926 21.972)"><path class="d" d="M23.094,17.571a4.182,4.182,0,0,1,.577.26c2.958,1.7,2.893,5.71,5.75,9.37-4.6-.644-8.038,1.411-10.988-.293a4.331,4.331,0,0,1-.5-.361A49.716,49.716,0,0,1,6.8,37.7a4.336,4.336,0,0,1,.351.486c1.7,2.957-.351,6.392.292,10.99-3.661-2.857-7.666-2.8-9.37-5.746a4.184,4.184,0,0,1-.244-.544A49.725,49.725,0,0,1-17.4,46.974a4.4,4.4,0,0,1,.059.586c0,3.411-3.5,5.359-5.24,9.662-1.738-4.3-5.241-6.25-5.241-9.662a4.354,4.354,0,0,1,.063-.617A50.359,50.359,0,0,1-42.967,42.85a4.467,4.467,0,0,1-.261.581c-1.7,2.951-5.71,2.889-9.37,5.746.649-4.6-1.411-8.033.292-10.99a4.558,4.558,0,0,1,.363-.5A49.616,49.616,0,0,1-63.1,26.556a4.223,4.223,0,0,1-.489.352c-2.952,1.7-6.389-.351-10.988.293,2.857-3.659,2.792-7.667,5.75-9.37a4.192,4.192,0,0,1,.543-.244A49.664,49.664,0,0,1-72.371,2.359a4.182,4.182,0,0,1-.586.06c-3.407,0-5.36-3.5-9.663-5.238,4.3-1.738,6.256-5.241,9.663-5.241A4.314,4.314,0,0,1-72.342-8a50.3,50.3,0,0,1,4.094-15.216,4.363,4.363,0,0,1-.577-.261c-2.958-1.7-2.893-5.705-5.75-9.366,4.6.645,8.037-1.411,10.988.293a4.442,4.442,0,0,1,.5.362,49.68,49.68,0,0,1,11.13-11.156,4.178,4.178,0,0,1-.353-.49c-1.7-2.953.357-6.389-.292-10.986,3.659,2.857,7.666,2.793,9.37,5.75a4.56,4.56,0,0,1,.244.544,49.7,49.7,0,0,1,15.225-4.089,4.375,4.375,0,0,1-.059-.586c0-3.412,3.5-5.36,5.241-9.663,1.738,4.3,5.24,6.25,5.24,9.663a4.327,4.327,0,0,1-.061.615A50.359,50.359,0,0,1-2.186-48.49a4.182,4.182,0,0,1,.26-.577c1.7-2.957,5.709-2.893,9.37-5.75-.642,4.6,1.41,8.033-.292,10.986a4.225,4.225,0,0,1-.365.505A49.654,49.654,0,0,1,17.943-32.2a4.428,4.428,0,0,1,.489-.352c2.951-1.7,6.389.352,10.988-.293-2.857,3.661-2.792,7.667-5.75,9.366a4.419,4.419,0,0,1-.545.247A49.74,49.74,0,0,1,27.216-8,4.174,4.174,0,0,1,27.8-8.06c3.407,0,5.36,3.5,9.663,5.241-4.3,1.741-6.256,5.238-9.663,5.238a4.18,4.18,0,0,1-.617-.064,50.334,50.334,0,0,1-4.092,15.216m-6.07-42.694A45.456,45.456,0,0,0-44.882-42.417a45.45,45.45,0,0,0-17.293,61.9A45.45,45.45,0,0,0-.274,36.778a45.457,45.457,0,0,0,17.3-61.9" transform="translate(82.62 62.862)"/></g></g><g transform="translate(81.15 -156.52)"><path class="d" d="M.616,0-.089,1.993-2.2,2.047-.524,3.334l-.6,2.027,1.741-1.2,1.741,1.2-.6-2.027L3.435,2.047,1.321,1.993Z" transform="translate(2.203)"/></g><g class="b" transform="translate(0 -212.29)"><g transform="translate(49.859 75.242)"><path class="d" d="M.191,3.31C-1.36,2.792-.377,1.64-.377,1.64,3.537-2.623,7.376-6.784,11.182-10.972a1.777,1.777,0,0,1,2.425-.636c5.74,2.334,11.564,4.464,17.368,6.641a1.854,1.854,0,0,1,1.442,2.025c-.075,4.289-.028,8.58-.027,12.871v1.944S1.528,3.756.191,3.31" transform="translate(0.684 11.841)"/></g><g transform="translate(84.977 75.242)"><path class="d" d="M7.04,3.31c1.551-.518.568-1.67.568-1.67C3.694-2.623-.144-6.784-3.951-10.972a1.777,1.777,0,0,0-2.425-.636c-5.74,2.334-11.564,4.464-17.368,6.641a1.854,1.854,0,0,0-1.442,2.025c.075,4.289.028,8.58.027,12.871v1.944S5.7,3.756,7.04,3.31" transform="translate(25.187 11.841)"/></g><g transform="translate(51.981 97.596)"><path class="d" d="M.1.258c.958-1.7,2.238-1.118,3.345-.934C6.82-.115,28.419,3.767,30.193,4.385,24.174,3.971,5.986,1.759-.357,1.321-.1.665.1.258.1.258" transform="translate(0.357 0.922)"/></g><g transform="translate(85.407 97.596)"><path class="d" d="M6.574.258c-.958-1.7-2.238-1.118-3.345-.934C-.146-.115-21.746,3.767-23.519,4.385-17.5,3.971.688,1.759,7.031,1.321,6.777.665,6.574.258,6.574.258" transform="translate(23.519 0.922)"/></g><g transform="translate(50.212 93.091)"><path class="d" d="M.139.253C1.414-1.586,2.78-.765,4-.419,7.715.635,30.333,6.056,32.249,6.98,25.55,5.777,6.56,2.689-.5,1.422-.137.7.139.253.139.253" transform="translate(0.498 0.903)"/></g><g transform="translate(84.979 93.091)"><path class="d" d="M7.014.253C5.74-1.586,4.374-.765,3.154-.419-.562.635-23.18,6.056-25.095,6.98-18.4,5.777.594,2.689,7.652,1.422,7.291.7,7.014.253,7.014.253" transform="translate(25.095 0.903)"/></g><g transform="translate(72.611 60.86)"><path class="d" d="M2.241,3.483S3.509-3.583.429-6.663-5.73-9.2-7.542-12.46c0,0-1.992,8.333,2.174,11.233s6.7,2.174,7.609,4.71" transform="translate(8.018 12.46)"/></g><g transform="translate(72.611 72.092)"><path class="c" d="M2.241,3.483S3.509-3.583.429-6.663-5.73-9.2-7.542-12.46c0,0-1.992,8.333,2.174,11.233s6.7,2.174,7.609,4.71" transform="translate(8.018 12.46)"/></g><g transform="translate(72.611 82.962)"><path class="c" d="M2.241,3.483S3.509-3.583.429-6.663-5.73-9.2-7.542-12.46c0,0-1.992,8.333,2.174,11.233s6.7,2.174,7.609,4.71" transform="translate(8.018 12.46)"/></g><g transform="translate(84.932 60.86)"><path class="d" d="M.056,3.483S-1.212-3.583,1.868-6.663,8.028-9.2,9.84-12.46c0,0,1.992,8.333-2.174,11.233S.962.947.056,3.483" transform="translate(0.202 12.46)"/></g><g transform="translate(84.932 72.092)"><path class="c" d="M.056,3.483S-1.212-3.583,1.868-6.663,8.028-9.2,9.84-12.46c0,0,1.992,8.333-2.174,11.233S.962.947.056,3.483" transform="translate(0.202 12.46)"/></g><g transform="translate(84.932 82.962)"><path class="c" d="M.056,3.483S-1.212-3.583,1.868-6.663,8.028-9.2,9.84-12.46c0,0,1.992,8.333-2.174,11.233S.962.947.056,3.483" transform="translate(0.202 12.46)"/></g><g transform="translate(79.666 50.104)"><path class="d" d="M0,1.781C-.194,6.863,4.349,10.3,4.349,10.3S8.7,6.311,8.517,1.6,4.349-4.016,3.987-6.372c0,1.45-3.8,3.443-3.986,8.153" transform="translate(0.005 6.372)"/></g><g transform="translate(72.618 72.092)"><path class="d" d="M4.947,1.466a19.691,19.691,0,0,0-.29-6.71C2.845-1.983-.235-2.526-3.315.553c-2.123,2.123-2.179,6.139-2.01,8.431-.006-.727,0-1.454-.014-2.179A1.854,1.854,0,0,1-3.9,4.78C-.949,3.674,2,2.58,4.947,1.466M-7.379,10.243c.216-1.592.738-7.072-1.88-9.69-3.08-3.08-6.16-2.536-7.971-5.8a19.653,19.653,0,0,0-.281,6.76c2.9,1.1,5.809,2.175,8.712,3.264A1.854,1.854,0,0,1-7.356,6.805c-.02,1.145-.017,2.292-.023,3.438" transform="translate(17.698 5.244)"/></g><g transform="translate(0 223.541)"><path class="e" d="M0,0H167.938"/></g><g transform="translate(1.309 197.697)"><path class="c" d="M1.993,1.671l5.283-7.41H2.325L-1.193-.671A19.49,19.49,0,0,0-2.579,1.444V-5.739h-4.55V10.8h4.55V5.269l1.341-.792L2.073,10.8h5.11Zm16.249-7.41V3.944a4.166,4.166,0,0,1-.624,2.574,2.412,2.412,0,0,1-2.01.786,2.412,2.412,0,0,1-1.96-.792,3.938,3.938,0,0,1-.664-2.545V-5.739H8.432V4.318A6.5,6.5,0,0,0,10.272,9.3a7.393,7.393,0,0,0,5.265,1.731,7.47,7.47,0,0,0,5.369-1.781,6.635,6.635,0,0,0,1.862-5.03V-5.739ZM36.486,10.8l3.38-11.889h.1q-.136,2.693-.155,3.382T39.8,3.549V10.8h4.16V-5.739H37.918L34.492,6H34.4L30.9-5.739H24.878V10.8h4.01V3.617q0-1.685-.241-4.729h.1L32.178,10.8Zm25.84,0L56.792-5.807H50.752L45.286,10.8H50.26l.848-3.1H56.55l.825,3.1ZM52.047,4.035Q53.089.143,53.393-1.18t.407-1.9q.115.624.476,2.06t.613,2.342l.722,2.715Zm17.291.747L72.892,10.8h5.133L73.144,3.594A4.879,4.879,0,0,0,75.986-.853q0-4.886-6.83-4.886H63.667V10.8h4.527V4.782Zm-1.145-7.14h.893q2.326,0,2.326,1.708,0,2.071-2.372,2.07h-.847ZM95.716,10.8,90.182-5.807H84.143L78.677,10.8H83.65L84.5,7.7h5.443l.825,3.1ZM85.438,4.035Q86.48.143,86.784-1.18t.407-1.9q.115.624.476,2.06t.613,2.342L89,4.035Zm18.347.532h2.99v2.59a8.338,8.338,0,0,1-1.857.193,3.413,3.413,0,0,1-2.824-1.217,5.521,5.521,0,0,1-.98-3.535A5.463,5.463,0,0,1,102.2-1.039a3.8,3.8,0,0,1,3.066-1.272,8.963,8.963,0,0,1,3.975.882l1.433-3.507a12.8,12.8,0,0,0-2.446-.746,14.563,14.563,0,0,0-2.985-.294,8.97,8.97,0,0,0-6.486,2.229,8.247,8.247,0,0,0-2.315,6.234,8.809,8.809,0,0,0,2.114,6.323,7.878,7.878,0,0,0,5.988,2.217,20.1,20.1,0,0,0,6.473-1V1.117h-7.229ZM123.208-5.739V3.944a4.174,4.174,0,0,1-.624,2.574,2.892,2.892,0,0,1-3.97-.006,3.93,3.93,0,0,1-.665-2.545V-5.739H113.4V4.318A6.5,6.5,0,0,0,115.237,9.3a7.4,7.4,0,0,0,5.265,1.731,7.468,7.468,0,0,0,5.369-1.781,6.635,6.635,0,0,0,1.862-5.03V-5.739ZM135.985,4.782l3.552,6.018h5.135l-4.883-7.206a4.877,4.877,0,0,0,2.842-4.446q0-4.886-6.829-4.886h-5.489V10.8h4.527V4.782Zm-1.145-7.14h.893q2.326,0,2.326,1.708,0,2.071-2.372,2.07h-.847Zm20.133-3.382V3.944a4.166,4.166,0,0,1-.624,2.574,2.892,2.892,0,0,1-3.97-.006,3.938,3.938,0,0,1-.664-2.545V-5.739h-4.55V4.318A6.5,6.5,0,0,0,147,9.3a7.393,7.393,0,0,0,5.265,1.731,7.47,7.47,0,0,0,5.369-1.781,6.635,6.635,0,0,0,1.862-5.03V-5.739Z" transform="translate(7.129 5.977)"/></g><path class="c" d="M2.9-29.883H.792V-17H2.9ZM2.9-17,21.721-29.883h-1.93v6.748q0,.714.054,1.987t.07,1.475h-.054L13.545-29.883H10.99V-17H12.9v-6.7q0-1.357-.124-3l-.044-.572h.07L19.14-17h2.581Zm15.211,7.868a3.231,3.231,0,0,0-.969-1.154,9.519,9.519,0,0,0-2.079-1.1,11.85,11.85,0,0,1-1.745-.837,2.173,2.173,0,0,1-.7-.674,1.659,1.659,0,0,1-.211-.859,1.465,1.465,0,0,1,.528-1.177,2.362,2.362,0,0,1,1.551-.444,8.048,8.048,0,0,1,3.066.722l.67-1.717a9.021,9.021,0,0,0-3.682-.811,4.753,4.753,0,0,0-3.076.925,3.087,3.087,0,0,0-1.145,2.537,3.446,3.446,0,0,0,.723,2.2,5.972,5.972,0,0,0,2.485,1.63,8.2,8.2,0,0,1,2.255,1.189,1.6,1.6,0,0,1,.546,1.224,1.555,1.555,0,0,1-.594,1.278,2.937,2.937,0,0,1-1.846.475,8.01,8.01,0,0,1-1.846-.237,9.716,9.716,0,0,1-1.872-.653V-17.5a8.171,8.171,0,0,0,3.578.678A5.4,5.4,0,0,0,36-17.8a3.239,3.239,0,0,0,1.242-2.7,3.465,3.465,0,0,0-.308-1.515m11.943-6.062h3.789v-1.805H42.98v1.805h3.789V-17h2.106Zm12.558-1.805H59.327V-17h2.106Zm0,12.881M73.975-28.077h3.789v-1.805H68.08v1.805h3.789V-17h2.106Zm18.444-1.805v8.131q0,3.128-2.977,3.128a3.056,3.056,0,0,1-2.274-.757,3.256,3.256,0,0,1-.74-2.353v-8.149H84.314v8.3a4.593,4.593,0,0,0,1.331,3.489,5.182,5.182,0,0,0,3.726,1.268,6.153,6.153,0,0,0,2.771-.577,4.076,4.076,0,0,0,1.771-1.647,4.946,4.946,0,0,0,.613-2.5v-8.335Zm14.542,1.805h3.787v-1.805h-9.682v1.805h3.789V-17h2.106ZM124.7-18.79h-5.181v-4.045h4.854V-24.6h-4.854V-28.1H124.7v-1.78h-7.287V-17H124.7Zm26.721-9.559a5.68,5.68,0,0,0-4.441-1.736,5.8,5.8,0,0,0-4.489,1.709,6.985,6.985,0,0,0-1.573,4.9,7.088,7.088,0,0,0,1.564,4.92,5.728,5.728,0,0,0,4.481,1.731,5.684,5.684,0,0,0,4.453-1.744,7.044,7.044,0,0,0,1.574-4.89,7.038,7.038,0,0,0-1.569-4.889m-7.3,1.295a3.418,3.418,0,0,1,2.858-1.224,3.348,3.348,0,0,1,2.824,1.224,5.794,5.794,0,0,1,.948,3.594,5.783,5.783,0,0,1-.957,3.621,3.382,3.382,0,0,1-2.832,1.217,3.39,3.39,0,0,1-2.846-1.23,5.769,5.769,0,0,1-.961-3.608,5.718,5.718,0,0,1,.965-3.594m18.413,4.766h4.854v-1.789h-4.854V-28.1h5.181v-1.78h-7.269V-17h2.088Z" transform="translate(0.221 263.219)"/><g transform="translate(1.014 254.624)"><path class="c" d="M3.675,3.665-1.79-12.943H-7.751l-5.4,16.608h4.909L-7.4.565h5.374l.814,3.1ZM-6.473-3.1q1.029-3.892,1.329-5.217t.4-1.9q.111.622.47,2.059t.605,2.342L-2.954-3.1Zm19.039.531H15.52V.023a8.2,8.2,0,0,1-1.832.192A3.357,3.357,0,0,1,10.9-1a5.579,5.579,0,0,1-.967-3.535A5.508,5.508,0,0,1,11-8.174a3.733,3.733,0,0,1,3.026-1.273,8.74,8.74,0,0,1,3.926.883l1.414-3.507a12.472,12.472,0,0,0-2.414-.747A14.208,14.208,0,0,0,14-13.113a8.785,8.785,0,0,0-6.4,2.229A8.308,8.308,0,0,0,5.315-4.65,8.875,8.875,0,0,0,7.4,1.674a7.726,7.726,0,0,0,5.911,2.217,19.621,19.621,0,0,0,6.392-1V-6.019h-7.14Zm16.574.215,3.507,6.019h5.069L32.9-3.541A4.885,4.885,0,0,0,35.7-7.987q0-4.888-6.743-4.888H23.541V3.665h4.468V-2.354ZM28.009-9.492h.883q2.3,0,2.3,1.708,0,2.071-2.343,2.07h-.837Zm16.167-3.383H39.684V3.665h4.491Zm0,16.54M57.548-9.153a15.329,15.329,0,0,1,1.832.724l1.369-3.519a11.766,11.766,0,0,0-5.126-1.166,8.4,8.4,0,0,0-4.27,1.047,6.927,6.927,0,0,0-2.783,2.993A10.018,10.018,0,0,0,47.6-4.559q0,4.107,2,6.279a7.407,7.407,0,0,0,5.741,2.173,11.47,11.47,0,0,0,4.684-.916V-.8a20.908,20.908,0,0,1-2.07.736,7.451,7.451,0,0,1-2.127.306q-3.633,0-3.633-4.774a6.31,6.31,0,0,1,.894-3.6,2.85,2.85,0,0,1,2.489-1.306,6.424,6.424,0,0,1,1.969.294m15.759-3.722V-3.19A4.21,4.21,0,0,1,72.69-.617,2.367,2.367,0,0,1,70.7.17a2.367,2.367,0,0,1-1.935-.792,3.977,3.977,0,0,1-.655-2.545v-9.708H63.622V-2.817a6.554,6.554,0,0,0,1.816,4.977,7.245,7.245,0,0,0,5.2,1.731,7.311,7.311,0,0,0,5.3-1.782,6.677,6.677,0,0,0,1.839-5.028v-9.956ZM92.55,3.665V.056H86.181V-12.875H81.711V3.665ZM102.958-9.221h4.028v-3.654H94.45v3.654h4.038V3.665h4.469Zm16.449-3.654V-3.19a4.21,4.21,0,0,1-.617,2.573A2.371,2.371,0,0,1,116.8.17a2.367,2.367,0,0,1-1.935-.792,3.976,3.976,0,0,1-.656-2.545v-9.708h-4.491V-2.817a6.554,6.554,0,0,0,1.816,4.977,7.241,7.241,0,0,0,5.2,1.731,7.308,7.308,0,0,0,5.3-1.782,6.677,6.677,0,0,0,1.839-5.028v-9.956ZM133.413-2.354l3.507,6.019h5.068l-4.82-7.206a4.885,4.885,0,0,0,2.806-4.446q0-4.888-6.743-4.888h-5.419V3.665h4.468V-2.354ZM132.28-9.492h.883q2.3,0,2.3,1.708,0,2.071-2.342,2.07h-.838Zm21.5,9.514h-5.352V-3.1h4.956V-6.686h-4.956v-2.6h5.352v-3.586h-9.82V3.665h9.82Z" transform="translate(13.148 13.113)"/></g></g></g></svg>