<svg xmlns="http://www.w3.org/2000/svg" xmlns:xlink="http://www.w3.org/1999/xlink" width="178.558" height="272.958" viewBox="0 0 178.558 272.958"><defs><style>.a{fill:none;}.b{clip-path:url(#a);}.c{fill:#1c498e;}</style><clipPath id="a"><path class="a" d="M0-126.15H178.558V-399.108H0Z" transform="translate(0 399.108)"/></clipPath></defs><g class="b" transform="translate(0 0)"><g transform="translate(0.001 239.055)"><path class="c" d="M-82.354-5.674V-17.8h-3.762V-5.8A3.148,3.148,0,0,1-89.5-2.411,3.126,3.126,0,0,1-92.85-5.8V-17.8h-3.79V-5.674C-96.641-1.764-93.479.8-89.5.8s7.143-2.565,7.143-6.475m-21.7-6.476a2.477,2.477,0,0,1-2.753,2.435h-3.571v-4.87h3.571a2.477,2.477,0,0,1,2.753,2.434m4.581,12.8-4.335-7.951a4.993,4.993,0,0,0,3.545-4.845c0-3.081-2.345-5.645-6.3-5.645h-7.607V.645h3.791V-6.71h2.726l3.789,7.356ZM-118.4-5.674V-17.8h-3.764V-5.8a3.146,3.146,0,0,1-3.379,3.392A3.126,3.126,0,0,1-128.894-5.8V-17.8h-3.789V-5.674c0,3.91,3.162,6.475,7.143,6.475s7.144-2.565,7.144-6.475m-17.531-1.244V-9.611h-7.334v3h3.57v.7a3.5,3.5,0,0,1-.873,2.46,3.586,3.586,0,0,1-2.7,1.036,3.074,3.074,0,0,1-2.427-.957c-.764-.855-.927-1.581-.927-5.206,0-3.652.219-4.326.927-5.181a3.17,3.17,0,0,1,2.427-.984,3.27,3.27,0,0,1,3.49,2.695h3.816c-.518-3.213-2.89-5.906-7.306-5.906a7.32,7.32,0,0,0-5.236,2.02,5.18,5.18,0,0,0-1.581,2.772,24,24,0,0,0-.326,4.584,24.007,24.007,0,0,0,.326,4.584A5.273,5.273,0,0,0-148.5-1.219,7.317,7.317,0,0,0-143.261.8a7.471,7.471,0,0,0,5.479-2.1c1.337-1.347,1.855-2.926,1.855-5.62m-22.056,1.269h-4.826l2.455-6.707Zm6.107,6.294L-158.964-17.8h-2.974L-169,.645h3.954l1.172-3.263h6.9l1.145,3.263Zm-22.712-12.8a2.477,2.477,0,0,1-2.753,2.435h-3.571v-4.87h3.571a2.478,2.478,0,0,1,2.753,2.434m4.581,12.8-4.335-7.951A4.993,4.993,0,0,0-170.8-12.15c0-3.081-2.344-5.645-6.3-5.645H-184.7V.645h3.791V-6.71h2.725L-174.4.645Zm-23.2-6.294h-4.825l2.453-6.707ZM-187.1.645-194.19-17.8h-2.972L-204.222.645h3.952l1.174-3.263h6.9l1.145,3.263Zm-19.52,0V-17.8h-3.734L-215.4-7.824l-5.073-9.972h-3.734V.645h3.789V-10.1l3.736,6.994h2.562l3.708-6.994V.645Zm-21.811-6.319V-17.8H-232.2V-5.8a3.147,3.147,0,0,1-3.381,3.392A3.126,3.126,0,0,1-238.929-5.8V-17.8h-3.79V-5.674c0,3.91,3.163,6.475,7.143,6.475s7.144-2.565,7.144-6.475M-244.846.645l-6.9-11.112,6.434-7.329h-4.608l-6.844,8.028V-17.8h-3.789V.645h3.789V-4.9l2.509-2.849,4.989,8.392Z" transform="translate(260.549 17.951)"/></g><g transform="translate(0 266.527)"><path class="c" d="M-82.289-2.947v-1.1h-3.085V-5.587h2.627v-1.1h-2.627V-8.171h3.085v-1.1h-4.384v6.324ZM-87.8-4.893h-1.32a1.082,1.082,0,0,1-1.121.9,1.057,1.057,0,0,1-.833-.329c-.271-.276-.328-.559-.328-1.786s.057-1.51.328-1.786a1.057,1.057,0,0,1,.833-.329,1.082,1.082,0,0,1,1.121.9h1.32a2.313,2.313,0,0,0-2.45-2,2.506,2.506,0,0,0-1.8.692,1.76,1.76,0,0,0-.542.95A8.128,8.128,0,0,0-92.7-6.11a8.136,8.136,0,0,0,.112,1.574,1.8,1.8,0,0,0,.542.949,2.5,2.5,0,0,0,1.8.693,2.32,2.32,0,0,0,2.45-2m-6.228,1.945V-9.272h-1.3V-5.4l-2.638-3.872H-99.12v6.324h1.3V-6.829l2.638,3.882Zm-6.369,0v-1.1h-3.086V-5.587h2.628v-1.1h-2.628V-8.171h3.086v-1.1h-4.385v6.324Zm-5.938-6.324h-1.3v6.324h1.3Zm-2.422,4.379h-1.32a1.082,1.082,0,0,1-1.121.9,1.058,1.058,0,0,1-.833-.329c-.271-.276-.328-.559-.328-1.786s.057-1.51.328-1.786a1.058,1.058,0,0,1,.833-.329,1.081,1.081,0,0,1,1.121.9h1.32a2.313,2.313,0,0,0-2.45-2,2.513,2.513,0,0,0-1.8.692,1.764,1.764,0,0,0-.542.95,8.308,8.308,0,0,0-.111,1.573,8.317,8.317,0,0,0,.111,1.574,1.8,1.8,0,0,0,.542.949,2.511,2.511,0,0,0,1.8.693,2.318,2.318,0,0,0,2.45-2m-5.9.081a1.717,1.717,0,0,0-.515-1.342,2.257,2.257,0,0,0-1.271-.49l-.786-.105A1.19,1.19,0,0,1-117.843-7a.6.6,0,0,1-.2-.454c0-.436.337-.8,1.03-.8a1.92,1.92,0,0,1,1.365.434l.822-.771a2.938,2.938,0,0,0-2.152-.737c-1.439,0-2.318.79-2.318,1.918a1.624,1.624,0,0,0,.477,1.244,2.309,2.309,0,0,0,1.29.525l.8.107a1.013,1.013,0,0,1,.589.222.684.684,0,0,1,.207.532c0,.507-.412.783-1.18.783a2.248,2.248,0,0,1-1.608-.534l-.841.8a3.222,3.222,0,0,0,2.43.834c1.394,0,2.469-.693,2.469-1.918m-9.1-1.325c0,.96-.036,1.413-.28,1.7a1.193,1.193,0,0,1-.973.391h-.983V-8.171h.983a1.188,1.188,0,0,1,.973.391c.244.285.28.685.28,1.644m1.3,0a3.062,3.062,0,0,0-.673-2.532,2.5,2.5,0,0,0-1.757-.6h-2.4v6.324h2.4a2.5,2.5,0,0,0,1.757-.6,3.18,3.18,0,0,0,.673-2.586m-6.388,3.189V-9.272h-1.3V-5.4l-2.638-3.872h-1.158v6.324h1.3V-6.829L-130-2.947Zm-8.014-2.158h-1.655l.843-2.3Zm2.1,2.158-2.431-6.324h-1.02l-2.422,6.324h1.356l.4-1.12h2.366l.394,1.12ZM-143.3-4.812a1.719,1.719,0,0,0-.514-1.342,2.259,2.259,0,0,0-1.271-.49l-.786-.105A1.185,1.185,0,0,1-146.486-7a.6.6,0,0,1-.2-.454c0-.436.337-.8,1.028-.8a1.922,1.922,0,0,1,1.367.434l.822-.771a2.936,2.936,0,0,0-2.151-.737c-1.44,0-2.318.79-2.318,1.918a1.628,1.628,0,0,0,.476,1.244,2.318,2.318,0,0,0,1.291.525l.805.107a1.015,1.015,0,0,1,.589.222.684.684,0,0,1,.206.532c0,.507-.412.783-1.179.783a2.246,2.246,0,0,1-1.608-.534l-.841.8a3.223,3.223,0,0,0,2.43.834c1.394,0,2.469-.693,2.469-1.918m-5.359-3.359v-1.1h-4.778v1.1h1.74v5.224h1.3V-8.171Zm-6.929.835a.849.849,0,0,1-.944.836h-1.226V-8.171h1.226a.849.849,0,0,1,.944.835m1.57,4.389L-155.5-5.675a1.713,1.713,0,0,0,1.214-1.661,1.967,1.967,0,0,0-2.159-1.935h-2.609v6.324h1.3V-5.47h.936l1.3,2.523Zm-7.957-2.158h-1.655l.841-2.3Zm2.094,2.158-2.431-6.324h-1.018l-2.422,6.324h1.356l.4-1.12h2.367l.392,1.12Zm-8.37,0v-1.1h-3.02V-9.272h-1.3v6.324Zm-7.237-2.158h-1.656l.843-2.3Zm2.094,2.158-2.431-6.324h-1.019l-2.422,6.324h1.356l.4-1.12h2.365l.392,1.12Zm-7.789-4.389a.849.849,0,0,1-.945.836h-1.226V-8.171h1.226a.849.849,0,0,1,.945.835m1.57,4.389L-181.1-5.675a1.712,1.712,0,0,0,1.214-1.661,1.967,1.967,0,0,0-2.159-1.935h-2.609v6.324h1.3V-5.47h.936l1.3,2.523Zm-6.312,0v-1.1h-3.086V-5.587h2.628v-1.1h-2.628V-8.171h3.086v-1.1h-4.385v6.324Zm-7.107-4.495c0,.435-.308.73-.86.73h-1.273V-8.171h1.273c.551,0,.86.293.86.729m.094,2.611a.772.772,0,0,1-.871.783h-1.356V-5.6h1.356a.766.766,0,0,1,.871.774m1.3.063a1.468,1.468,0,0,0-.915-1.422A1.456,1.456,0,0,0-191.73-7.5c0-1.085-.757-1.776-2.057-1.776h-2.674v6.324h2.786a1.8,1.8,0,0,0,2.037-1.821m-6.378-4.5h-1.3v6.324h1.3Zm-2.356,6.324v-1.1h-3.02V-9.272h-1.3v6.324Zm-7.622-5.224v-1.1h-4.385v6.324h1.3V-5.516h2.626v-1.1h-2.626V-8.171Zm-7.013,2.061c0,1.217-.074,1.511-.328,1.777a1.108,1.108,0,0,1-.833.339,1.129,1.129,0,0,1-.841-.339c-.254-.266-.319-.559-.319-1.777s.065-1.51.319-1.778a1.134,1.134,0,0,1,.841-.337,1.113,1.113,0,0,1,.833.337c.254.267.328.56.328,1.778m1.3,0c0-1.093.01-1.883-.663-2.523a2.474,2.474,0,0,0-1.8-.692,2.5,2.5,0,0,0-1.8.692c-.672.64-.653,1.43-.653,2.523s-.019,1.884.653,2.523a2.5,2.5,0,0,0,1.8.693,2.475,2.475,0,0,0,1.8-.693c.673-.639.663-1.43.663-2.523m-8.135,3.162v-1.1h-3.087V-5.587h2.628v-1.1h-2.628V-8.171h3.087v-1.1h-4.386v6.324Zm-5.6-2.593v-.923h-2.515v1.029h1.226v.241a1.208,1.208,0,0,1-.3.844,1.23,1.23,0,0,1-.927.356,1.054,1.054,0,0,1-.832-.329c-.263-.293-.318-.542-.318-1.786s.074-1.483.318-1.778a1.085,1.085,0,0,1,.832-.337,1.121,1.121,0,0,1,1.2.925h1.308a2.346,2.346,0,0,0-2.507-2.025,2.511,2.511,0,0,0-1.8.692,1.769,1.769,0,0,0-.542.95,8.3,8.3,0,0,0-.112,1.573,8.306,8.306,0,0,0,.112,1.574,1.807,1.807,0,0,0,.542.949,2.509,2.509,0,0,0,1.8.693,2.562,2.562,0,0,0,1.88-.719,2.45,2.45,0,0,0,.635-1.927m-6.012,2.593v-1.1h-3.087V-5.587h2.628v-1.1h-2.628V-8.171h3.087v-1.1h-4.385v6.324Zm-5.443,0v-1.1h-3.02V-9.272h-1.3v6.324Zm-5.378,0v-1.1H-247.3V-9.272h-1.3v6.324Zm-6.947-3.162c0,1.217-.076,1.511-.328,1.777a1.109,1.109,0,0,1-.833.339,1.13,1.13,0,0,1-.843-.339c-.252-.266-.318-.559-.318-1.777s.066-1.51.318-1.778a1.135,1.135,0,0,1,.843-.337,1.114,1.114,0,0,1,.833.337c.252.267.328.56.328,1.778m1.3,0c0-1.093.009-1.883-.665-2.523a2.472,2.472,0,0,0-1.8-.692,2.5,2.5,0,0,0-1.8.692c-.672.64-.653,1.43-.653,2.523s-.019,1.884.653,2.523a2.5,2.5,0,0,0,1.8.693,2.473,2.473,0,0,0,1.8-.693c.674-.639.665-1.43.665-2.523m-5.518,1.217h-1.318a1.084,1.084,0,0,1-1.123.9,1.051,1.051,0,0,1-.831-.329c-.273-.276-.327-.559-.327-1.786s.055-1.51.327-1.786a1.051,1.051,0,0,1,.831-.329,1.083,1.083,0,0,1,1.123.9h1.318a2.312,2.312,0,0,0-2.451-2,2.513,2.513,0,0,0-1.8.692,1.777,1.777,0,0,0-.542.95,8.306,8.306,0,0,0-.112,1.573,8.314,8.314,0,0,0,.112,1.574,1.816,1.816,0,0,0,.542.949,2.511,2.511,0,0,0,1.8.693,2.318,2.318,0,0,0,2.451-2" transform="translate(260.342 9.325)"/></g><g transform="translate(18.13 0.001)"><path class="c" d="M-36.838-49.754l7.463,12.979a7.852,7.852,0,0,0,6.793,3.939l42.9.075a5.308,5.308,0,0,0,4.611-7.953L16.22-55.853a4.979,4.979,0,0,0-6.8-1.834l-1.349.778a4.975,4.975,0,0,0-1.833,6.8l1.776,3.091A1.818,1.818,0,0,1,6.436-44.3l-25.265-.046a2.807,2.807,0,0,1-2.425-1.406l-5.6-9.743a5.215,5.215,0,0,0-7.122-1.921l-.938.54a5.214,5.214,0,0,0-1.921,7.121m-3.945,52.2,8.732-15.126a4.98,4.98,0,0,0-1.821-6.8l-1.351-.779a4.978,4.978,0,0,0-6.8,1.823L-43.8-15.352a1.818,1.818,0,0,1-3.148,0l-12.631-21.88a2.807,2.807,0,0,1,0-2.8l5.619-9.734a5.215,5.215,0,0,0-1.909-7.124l-.938-.542a5.214,5.214,0,0,0-7.124,1.909l-7.486,12.965a7.847,7.847,0,0,0,0,7.855L-49.974,2.444a5.307,5.307,0,0,0,9.192,0M-115.788-40.92a5.307,5.307,0,0,0,4.588,7.966l17.464.021a4.977,4.977,0,0,0,4.984-4.973v-1.559a4.977,4.977,0,0,0-4.971-4.983l-3.567,0a1.817,1.817,0,0,1-1.57-2.727L-86.2-69.047a2.814,2.814,0,0,1,2.431-1.4l11.24.013a5.215,5.215,0,0,0,5.222-5.208l0-1.085a5.218,5.218,0,0,0-5.209-5.222l-14.972-.017a7.856,7.856,0,0,0-6.808,3.92Zm61.768-61.607-7.511-12.949a7.856,7.856,0,0,0-6.811-3.913l-42.9.09a5.307,5.307,0,0,0-4.581,7.97l8.765,15.106a4.977,4.977,0,0,0,6.8,1.808L-98.9-95.2A4.98,4.98,0,0,0-97.1-102l-1.791-3.083a1.818,1.818,0,0,1,1.568-2.73l25.266-.053a2.8,2.8,0,0,1,2.43,1.4l5.641,9.721a5.214,5.214,0,0,0,7.128,1.892l.937-.543a5.216,5.216,0,0,0,1.894-7.129m34.686-7.227a7.851,7.851,0,0,0,0-7.853l-21.448-37.151a5.308,5.308,0,0,0-9.192,0l-8.732,15.126a4.978,4.978,0,0,0,1.822,6.8l1.348.78a4.98,4.98,0,0,0,6.8-1.823l1.782-3.087a1.817,1.817,0,0,1,3.148,0l12.633,21.878a2.807,2.807,0,0,1,0,2.8l-5.619,9.732a5.215,5.215,0,0,0,1.909,7.126l.938.542a5.215,5.215,0,0,0,7.124-1.909Zm39.78-9.6-17.466-.021A4.976,4.976,0,0,0-2-114.407v1.559a4.979,4.979,0,0,0,4.973,4.984l3.565,0a1.818,1.818,0,0,1,1.57,2.729L-4.556-83.267a2.813,2.813,0,0,1-2.43,1.4l-11.241-.016a5.218,5.218,0,0,0-5.222,5.211l0,1.083a5.218,5.218,0,0,0,5.211,5.222l14.971.018a7.851,7.851,0,0,0,6.806-3.92l21.494-37.124a5.307,5.307,0,0,0-4.587-7.966" transform="translate(116.545 157.41)"/></g><g transform="translate(0 179.26)"><path class="c" d="M-14.5-17.892-27.427-39.813a1,1,0,0,1,.093-1.145l11.405-13.677a1,1,0,0,0-.766-1.635h-6.861a1,1,0,0,0-.775.369l-11.99,14.808a1,1,0,0,1-1.77-.626V-55.274a1,1,0,0,0-1-1H-44.88a1,1,0,0,0-1,1v37.888a1,1,0,0,0,1,1h5.792a1,1,0,0,0,1-1V-28.014a1,1,0,0,1,.232-.639l4-4.779a1,1,0,0,1,1.632.15L-22.975-16.9a1,1,0,0,0,.868.507h6.748a1,1,0,0,0,.858-1.5M22.178-28.657H15.016a1,1,0,0,0-.938.717C13.125-24.931,11.042-23,7.556-23a6.15,6.15,0,0,1-4.982-2.074C.95-26.807.614-28.6.614-36.33S.95-45.852,2.573-47.586A6.15,6.15,0,0,1,7.556-49.66c3.487,0,5.57,1.931,6.523,4.94a1,1,0,0,0,.938.718h5.925a1.021,1.021,0,0,0,.994-1.227C20.242-52.573,14.778-56.6,7.5-56.6A14.614,14.614,0,0,0-3.252-52.236,11.337,11.337,0,0,0-6.5-46.242a54.375,54.375,0,0,0-.671,9.913A54.378,54.378,0,0,0-6.5-26.416a11.543,11.543,0,0,0,3.249,5.994A14.621,14.621,0,0,0,7.5-16.054c7.619,0,13.331-4.482,14.678-12.6m35.957,11.27v-4.952a1,1,0,0,0-1-1H41.04a1,1,0,0,1-1-1V-55.274a1,1,0,0,0-1-1H33.256a1,1,0,0,0-1,1v37.888a1,1,0,0,0,1,1H57.138a1,1,0,0,0,1-1m40.007-.342L84.306-55.614a.994.994,0,0,0-.935-.655H78.659a1,1,0,0,0-.937.655L63.943-17.726a1,1,0,0,0,.935,1.337h5.986a1,1,0,0,0,.944-.674l1.948-5.707a1,1,0,0,1,.943-.674H87.437a1,1,0,0,1,.947.68l1.9,5.693a1,1,0,0,0,.945.682h5.98a1,1,0,0,0,.936-1.339M84.7-30H77.571a1,1,0,0,1-.942-1.323l3.623-10.428a1,1,0,0,1,1.886.01l3.5,10.428A1,1,0,0,1,84.7-30m47.985,1.851c0-3.529-.953-6.443-3.08-8.46-1.679-1.567-3.975-2.574-7.617-3.082l-4.705-.671a6.842,6.842,0,0,1-3.695-1.567,3.843,3.843,0,0,1-1.178-2.857c0-2.745,2.017-5.04,6.16-5.04a11.538,11.538,0,0,1,7.492,2.146,1,1,0,0,0,1.327-.033l3.528-3.49a1.017,1.017,0,0,0-.036-1.479c-3.238-2.778-7.016-3.923-12.084-3.923-8.628,0-13.893,4.986-13.893,12.1a10.538,10.538,0,0,0,2.859,7.841c1.792,1.737,4.31,2.8,7.727,3.3l4.818.676a5.938,5.938,0,0,1,3.53,1.4,4.439,4.439,0,0,1,1.23,3.361c0,3.193-2.465,4.929-7.057,4.929-3.37,0-6.507-.7-8.946-2.731a.986.986,0,0,0-1.343.027l-3.652,3.652a1.02,1.02,0,0,0,.024,1.459c3.755,3.408,8.143,4.537,13.806,4.537,8.347,0,14.786-4.368,14.786-12.1" transform="translate(45.877 56.605)"/></g></g><path class="c" d="M.655-61.918H178.319v-2.847H.655Z" transform="translate(-0.207 293.429)"/></svg>