<svg xmlns="http://www.w3.org/2000/svg" width="136.342" height="113.618" viewBox="0 0 136.342 113.618"><defs><style>.a{fill:#78c5b0;}.b{fill:#06203e;}</style></defs><path class="a" d="M211.151,41.923l-36.223,3.134-2.145,19.513v7.142l4.857,11.362,9.228,4.323,56.823,3.883,37.882-2.525,13.7-.711,2.329-7.81,2.307-5.681L301,62.87l2.186-14.813-.971-4.75Z" transform="translate(-169.246 -23.423)"/><g transform="translate(0)"><path class="b" d="M304.384,137.716H173.724a2.85,2.85,0,0,1-2.841-2.841V43.981a2.85,2.85,0,0,1,2.841-2.841h130.66a2.846,2.846,0,0,1,2.841,2.841v90.894A2.846,2.846,0,0,1,304.384,137.716Zm-127.819-5.682H301.543V46.822H176.565Z" transform="translate(-170.883 -24.098)"/><path class="b" d="M246.211,51.869a2.848,2.848,0,0,1-2.839-2.841,11.367,11.367,0,0,0-11.362-11.36H209.285a11.37,11.37,0,0,0-11.362,11.36,2.84,2.84,0,1,1-5.68,0,17.063,17.063,0,0,1,17.042-17.042H232.01a17.063,17.063,0,0,1,17.042,17.042A2.847,2.847,0,0,1,246.211,51.869Z" transform="translate(-152.476 -31.986)"/><path class="b" d="M284.858,80.352h-91.6a22.4,22.4,0,0,1-22.372-22.367,3,3,0,0,1,2.841-3.016,2.686,2.686,0,0,1,2.841,2.659,16.781,16.781,0,0,0,16.69,17.042h91.6a16.7,16.7,0,0,0,16.685-16.685,3,3,0,0,1,2.841-3.016,2.687,2.687,0,0,1,2.841,2.664v.359A22.4,22.4,0,0,1,284.858,80.352Z" transform="translate(-170.883 -12.181)"/><path class="b" d="M211.444,71.914a8.521,8.521,0,1,1,8.521-8.521A8.533,8.533,0,0,1,211.444,71.914Zm0-11.362a2.84,2.84,0,1,0,2.841,2.841A2.845,2.845,0,0,0,211.444,60.552Z" transform="translate(-143.273 -12.264)"/></g></svg>