<svg xmlns="http://www.w3.org/2000/svg" width="130.597" height="122.853" viewBox="0 0 130.597 122.853"><defs><style>.a{fill:#78c5b0;}.b{fill:#06203e;}</style></defs><path class="a" d="M349.8,28.457,343.13,51.343V81.625L357.416,72.1l17.2,9.525,4.4-31.908-8.352-21.26Z" transform="translate(-294.738 -28.457)"/><g transform="translate(0 0)"><path class="b" d="M446.908,52.45a1.146,1.146,0,0,0-.152-.606V51.69c-.152-.3-.152-.455-.3-.606h0L433.394,32.86a10.109,10.109,0,0,0-8.353-4.4H338.178a10.152,10.152,0,0,0-8.352,4.251l-13.06,18.224h0a1.149,1.149,0,0,0-.3.606v.152c0,.153-.152.3-.152.608v89.6a9.461,9.461,0,0,0,9.415,9.415H437.342a9.461,9.461,0,0,0,9.415-9.415V52.6A.148.148,0,0,0,446.908,52.45ZM425.041,34.531a4.035,4.035,0,0,1,3.342,1.671l9.567,13.515H400.592l-4.4-15.186Zm-57.1,18.679,5.316-18.679h16.7l5.316,18.679V78.115L381.61,70.674l-13.668,7.441ZM334.837,36.2a4.034,4.034,0,0,1,3.342-1.671h28.7l-4.4,15.186H325.27Zm106,105.845a3.372,3.372,0,0,1-3.342,3.342H325.726a3.372,3.372,0,0,1-3.342-3.342V55.792h39.483V80.241a4.983,4.983,0,0,0,2.277,4.1,4.452,4.452,0,0,0,2.43.608,4.271,4.271,0,0,0,2.277-.608l12.757-6.985,12.757,6.985a4.741,4.741,0,0,0,4.708-.152,4.643,4.643,0,0,0,2.277-4.1v-24.3h39.483Z" transform="translate(-316.311 -28.457)"/><path class="b" d="M367.868,43.278a3.046,3.046,0,0,0-3.037-3.039H349.646a3.038,3.038,0,0,0,0,6.075h15.186A3.046,3.046,0,0,0,367.868,43.278Z" transform="translate(-291.94 -18.98)"/></g></svg>