<svg xmlns="http://www.w3.org/2000/svg" width="124.894" height="136.349" viewBox="0 0 124.894 136.349"><defs><style>.a{fill:#78c5b0;}.b{fill:#06203e;}</style></defs><path class="a" d="M80.214,70.263V57.128L73.4,61.173l-9.09-9.09,4.561-7.874L73.4,42.994l6.817,4.045L75.669,27.086,93.849,30.3l18.616,10.422,10.926,31.815-12.838-1.805-.8,4.078-9.09,9.09-6.809-4.545.287-9.09Z" transform="translate(1.502 -24.814)"/><g transform="translate(0)"><path class="b" d="M69.755,54.695a4.552,4.552,0,0,1,3.022,1.182,2.273,2.273,0,0,0,3.8-1.68V34.243A2.272,2.272,0,0,0,74.3,31.971a45.45,45.45,0,0,0-20.451,85.991v16.679a6.764,6.764,0,0,0-2.773,10.953,6.789,6.789,0,0,0,5.045,11.363H92.48a6.789,6.789,0,0,0,5.045-11.363,6.764,6.764,0,0,0-2.773-10.953V117.962a45.273,45.273,0,0,0,25-38.156,2.257,2.257,0,0,0-2.272-2.386H103.434a2.272,2.272,0,0,0-2.4,2.14,2.222,2.222,0,0,0,.125.882,4.3,4.3,0,0,1,.408,1.522,4.544,4.544,0,1,1-9.089,0,4.267,4.267,0,0,1,.3-1.522A2.273,2.273,0,0,0,90.5,77.42H76.573V64.286a2.273,2.273,0,0,0-3.8-1.682,4.545,4.545,0,1,1-3.022-7.909ZM56.12,138.778H92.48a2.272,2.272,0,0,1,0,4.544H56.12a2.272,2.272,0,0,1,0-4.544Zm11.363-38.633H65.21a2.272,2.272,0,1,1,2.272-2.272Zm4.544,4.544h4.546v29.542H72.027ZM92.48,152.413H56.12a2.273,2.273,0,0,1,0-4.546H92.48a2.273,2.273,0,0,1,0,4.546ZM69.755,68.33a8.444,8.444,0,0,0,2.272-.294V79.692A2.272,2.272,0,0,0,74.3,81.964H87.934a9.091,9.091,0,1,0,18.181,0h8.817a40.768,40.768,0,0,1-23.407,32.519,2.272,2.272,0,0,0-1.318,2.069v17.679H81.117V104.69H83.39a6.817,6.817,0,1,0-6.817-6.817v2.272H72.027V97.873a6.817,6.817,0,1,0-6.817,6.817h2.272v29.542H58.392V116.553a2.275,2.275,0,0,0-1.318-2.069A40.9,40.9,0,0,1,72.027,36.515V50.377a8.4,8.4,0,0,0-2.272-.227,9.09,9.09,0,1,0,0,18.179Zm11.363,31.816V97.873a2.272,2.272,0,1,1,2.272,2.272Z" transform="translate(-28.943 -20.608)"/><path class="b" d="M123.391,73.586V71.314A45.449,45.449,0,0,0,77.942,25.865a2.273,2.273,0,0,0-2.272,2.272v16.2a8.446,8.446,0,0,0-2.272-.3,9.091,9.091,0,1,0,0,18.181,8.445,8.445,0,0,0,2.272-.3V73.586a2.273,2.273,0,0,0,2.272,2.274H91.577a9.09,9.09,0,0,0,18.179,0h11.363A2.5,2.5,0,0,0,123.391,73.586Zm-16.248-2.272a2.273,2.273,0,0,0-2.272,3.022,4.343,4.343,0,0,1,.341,1.524,4.545,4.545,0,0,1-9.091,0,4.318,4.318,0,0,1,.3-1.524,2.272,2.272,0,0,0-2.272-3.022H80.214V58.18A2.273,2.273,0,0,0,76.42,56.5a4.545,4.545,0,1,1,0-6.817,2.272,2.272,0,0,0,3.794-1.591V30.409a40.905,40.905,0,0,1,38.633,40.9Z" transform="translate(1.502 -25.865)"/></g></svg>