<svg xmlns="http://www.w3.org/2000/svg" width="126.375" height="126.375" viewBox="0 0 126.375 126.375"><defs><style>.a{fill:#78c5b0;}.b{fill:#06203e;}</style></defs><g transform="translate(0 0)"><ellipse class="a" cx="32.334" cy="32.334" rx="32.334" ry="32.334" transform="translate(30.853 30.853)"/><g transform="translate(0)"><path class="b" d="M527.678,132.433a39.755,39.755,0,1,1,39.755-39.755A39.755,39.755,0,0,1,527.678,132.433Zm0-8.834a30.921,30.921,0,1,0-30.921-30.921A30.921,30.921,0,0,0,527.678,123.6Zm-7.433-86.673a3.717,3.717,0,1,1,0-7.435h14.866a3.717,3.717,0,1,1,0,7.435Zm28.873,3.752a3.716,3.716,0,1,1,3.716-6.438l12.875,7.433a3.716,3.716,0,1,1-3.716,6.438Zm23.128,17.686a3.716,3.716,0,1,1,6.438-3.716l7.433,12.875a3.717,3.717,0,0,1-6.438,3.716Zm11.185,26.882a3.717,3.717,0,1,1,7.435,0v14.866a3.717,3.717,0,1,1-7.435,0Zm-3.752,28.873a3.717,3.717,0,0,1,6.438,3.716l-7.433,12.875a3.716,3.716,0,1,1-6.438-3.716Zm-17.686,23.128a3.716,3.716,0,1,1,3.716,6.438l-12.875,7.433a3.716,3.716,0,1,1-3.716-6.438Zm-26.882,11.185a3.717,3.717,0,0,1,0,7.435H520.245a3.717,3.717,0,1,1,0-7.435Zm-28.873-3.752a3.716,3.716,0,0,1-3.716,6.438l-12.877-7.433a3.717,3.717,0,0,1,3.718-6.438Zm-23.128-17.686a3.716,3.716,0,1,1-6.438,3.716l-7.433-12.875a3.716,3.716,0,0,1,6.438-3.716Zm-11.185-26.882a3.717,3.717,0,1,1-7.435,0V85.245a3.717,3.717,0,1,1,7.435,0Zm3.752-28.873a3.716,3.716,0,0,1-6.438-3.716l7.433-12.875a3.716,3.716,0,1,1,6.438,3.716Zm17.686-23.128a3.717,3.717,0,0,1-3.718-6.438l12.877-7.433a3.716,3.716,0,0,1,3.716,6.438Z" transform="translate(-464.491 -29.491)"/></g></g></svg>