<svg xmlns="http://www.w3.org/2000/svg" xmlns:xlink="http://www.w3.org/1999/xlink" width="271.197" height="271.197" viewBox="0 0 271.197 271.197"><defs><style>.a{fill:none;}.b{fill:#1b2840;}.c{clip-path:url(#a);}.d{fill:#fff;}</style><clipPath id="a"><path class="a" d="M0,134.613H271.2v-271.2H0Z" transform="translate(0 136.584)"/></clipPath></defs><g transform="translate(0 136.584)"><path class="b" d="M0,134.613H271.2v-271.2H0Z"/><g class="c" transform="translate(0 -136.584)"><g transform="translate(24.981 25.374)"><path class="d" d="M109.813,90.556V79.818h-4.549V89.43c0,1.642-.071,4.41-4.245,4.41s-4.243-2.768-4.243-4.41V79.818H92.225V90.556c0,1.876.234,6.471,8.794,6.471s8.794-4.595,8.794-6.471m-19,13.033c-3.538,0-5.1,2.327-5.1,4.686,0,3.419,2.69,4.652,5.123,4.652a5.07,5.07,0,0,0,3.749-1.475h.05v1.11c0,1.2-.4,2.657-3.137,2.657-1.459,0-2.587-.191-2.831-1.372h-2.5c.207,2.379,2.551,3,5.4,3,4.06,0,5.468-1.944,5.468-4.132V103.8h-2.4v1.356H94.6c-.554-.975-1.926-1.563-3.784-1.563m3.818,4.618a2.855,2.855,0,0,1-3.088,2.879c-2.516,0-3.332-1.491-3.332-2.843a2.886,2.886,0,0,1,3.125-2.818c1.231,0,3.294.574,3.294,2.782m-8.943-19.76V88.4a3.814,3.814,0,0,0,2.722-4.033c0-1.714-.774-4.549-5.417-4.549H70.823V96.563H75.37V90.417h5.653c1.408,0,2.418.584,2.418,2.931,0,1.757.02,2.438.443,3.215h4.974c-.8-.844-.868-2.818-.868-3.636,0-1.642-.306-4.176-2.3-4.479M83.58,85.1a2.031,2.031,0,0,1-2.18,2.131H75.37V83.007h5.794c1.1,0,2.416.423,2.416,2.089m-8.572-102.7,2.24-1.716-.212-2.3-2.708-1.108c-1.207-.494-2.653-2.458-4.049-4.358-2.136-2.9-4.716-6.417-8.645-7.928,1.932-3.56,1.7-7.772,1.513-11.258-.133-2.46-.278-5,.409-6.523L64.6-55.081l.306-.753-1.015-1.507-3.332.347c-1.372.137-3.32-.824-5.417-1.823l-.232-.111c-2.931-1.4-6.255-2.98-9.85-2.98a11.478,11.478,0,0,0-1.362.081c.014-4.047-2.168-7.631-3.971-10.6-1.338-2.2-2.609-4.283-2.706-5.945L36.778-82.1a6.108,6.108,0,0,1-1.382-.6l-3.01,2.063c-1.092.743-3.518.862-5.891.975-3.552.183-7.847.4-11.22,2.74-1.862-3.524-5.4-5.675-8.355-7.476-2.19-1.33-4.257-2.587-5.1-4L-.251-91.846c-.1,0-.2.014-.314.014a7.152,7.152,0,0,1-.84-.05l-1.948,3.6C-3.966-87.133-6.069-85.9-8.1-84.708c-2.919,1.714-6.773,3.971-8.733,7.738-3.473-2.434-7.924-2.655-11.3-2.823-2.349-.117-4.779-.236-5.857-.971l-3.026-2.067-1.4.929-.218,3.4c-.105,1.654-1.366,3.735-2.708,5.943-1.8,2.964-3.989,6.55-3.975,10.6a10.987,10.987,0,0,0-1.358-.083c-3.61,0-6.934,1.59-9.862,2.986l-.173.081c-2,.953-3.894,1.853-5.2,1.853-.119-.006-.167,0-.238-.01l-3.3-.351-1.062,1.612,1.338,2.939c.685,1.5.554,3.937.411,6.517-.2,3.479-.431,7.69,1.511,11.264-3.912,1.5-6.495,5.01-8.641,7.914-1.394,1.9-2.839,3.872-4.057,4.366l-2.692,1.1-.212,2.323,2.23,1.7c1.316,1,2.341,3.211,3.431,5.554C-71.735-9.042-69.974-5.24-66.609-3-69.325.239-69.95,4.662-70.431,8.042c-.336,2.329-.677,4.74-1.5,5.74l-1.632,1.982.322.79c.129.318.256.631.389.945l.31.735,2.444.387c1.628.254,3.572,1.708,5.637,3.244,2.605,1.954,6.108,4.579,10.2,4.942-.927,4.156.578,8.385,1.725,11.614.794,2.224,1.618,4.531,1.354,5.81l-.441,2.154.651.542c.361.3.727.6,1.092.894l.614.5,1.952-.667c1.251-.427,4.1-.135,6.566.246a37.76,37.76,0,0,0,5.838.592,13.831,13.831,0,0,0,5.288-.963c1.16,4.045,4.432,7.033,6.912,9.294,1.739,1.594,3.538,3.238,3.908,4.5l.54,1.855.826.181c.54.115,1.088.23,1.636.338l.778.153,1.243-1.33c1.13-1.213,3.421-2.011,5.873-2.863,2.863-1,6.316-2.206,8.85-4.732,2.7,3.592,6.991,5.061,10.541,6.27l.169.06a29.67,29.67,0,0,1,4.176,1.65l.612.324.518-.119c.608-.139,1.207-.284,1.8-.441l.52-.135.391-.57a34.287,34.287,0,0,1,2.341-2.891l.187-.208c2.393-2.738,5.556-6.362,6.227-11.042a14.037,14.037,0,0,0,4.873.81,37.774,37.774,0,0,0,5.905-.616c2.518-.389,5.262-.653,6.5-.236l1.837.629.614-.49c.4-.32.792-.639,1.183-.969l.651-.546-.421-2.039c-.26-1.287.56-3.584,1.358-5.806,1.14-3.209,2.655-7.444,1.727-11.606,4-.332,7.265-2.766,10.188-4.946,2.059-1.541,4-2.992,5.645-3.252l2.367-.375.314-.721q.211-.5.419-1l.324-.79-1.588-1.942c-.822-1-1.168-3.407-1.509-5.8-.475-3.344-1.1-7.76-3.814-10.994,3.377-2.242,5.139-6.05,6.616-9.247,1.08-2.311,2.1-4.493,3.4-5.486M74.716-19.9l-1.6,1.219c-1.571,1.2-2.649,3.536-3.8,6-1.61,3.477-3.53,7.611-7.551,9.312,3.5,2.859,4.168,7.631,4.7,11.4.375,2.621.723,5.087,1.787,6.39l1.038,1.263c-.135.324-.268.653-.407.973l-1.569.246c-1.954.312-4.015,1.843-6.189,3.473-2.907,2.168-6.2,4.634-10.12,4.634a8.821,8.821,0,0,1-1.027-.058c1.835,4.2.195,8.8-1.094,12.4C48,39.851,47.163,42.2,47.5,43.842l.244,1.2c-.373.316-.762.625-1.142.935L45.518,45.6c-1.664-.566-4.291-.256-7.079.175a36.551,36.551,0,0,1-5.609.584,11.289,11.289,0,0,1-6.092-1.571c.185,5.162-3.233,9.078-5.913,12.144a37.043,37.043,0,0,0-2.6,3.193l-.093.131c-.574.143-1.158.286-1.741.425l-.135-.073a30.994,30.994,0,0,0-4.491-1.779C7.9,57.51,3.287,55.94,1.085,51.6c-2.242,3.238-6.1,4.583-9.386,5.732-2.567.89-4.986,1.733-6.334,3.179l-.693.741c-.532-.1-1.06-.208-1.584-.33l-.3-1.029c-.467-1.612-2.305-3.294-4.253-5.073-2.786-2.547-6.314-5.774-6.743-10.25a11.178,11.178,0,0,1-6.239,1.664,36.972,36.972,0,0,1-5.6-.58c-2.788-.435-5.425-.737-7.085-.181l-1.2.413c-.353-.282-.707-.57-1.054-.866l.268-1.3c.336-1.65-.5-4-1.394-6.487-1.281-3.618-2.917-8.2-1.088-12.4-4.263.475-7.994-2.216-11.151-4.577-2.178-1.626-4.231-3.161-6.179-3.467l-1.64-.262c-.129-.306-.254-.612-.379-.919l1.076-1.31c1.064-1.3,1.416-3.765,1.789-6.388.534-3.767,1.213-8.536,4.7-11.4C-67.4-5.186-69.317-9.326-70.935-12.8c-1.146-2.474-2.232-4.807-3.8-6.008l-1.584-1.207c.02-.218.038-.439.062-.659l1.874-.77c1.553-.633,3.036-2.639,4.6-4.773,2.333-3.159,5.17-7.015,9.638-7.813-2.8-3.389-2.553-7.968-2.335-11.86.149-2.718.292-5.294-.532-7.09l-.993-2.188c.048-.075.1-.149.147-.226l2.4.256c1.714.175,3.91-.894,6.29-2.023,2.754-1.318,5.889-2.808,9.122-2.808a9.8,9.8,0,0,1,2.921.437c-.836-4.287,1.525-8.185,3.542-11.49,1.414-2.333,2.75-4.527,2.875-6.5l.171-2.663.006,0,2.2,1.5c1.39.943,3.87,1.068,6.5,1.2,3.8.191,8.619.433,11.786,3.705,1.3-4.364,5.474-6.814,8.758-8.738,2.275-1.334,4.42-2.593,5.214-4.072L-.8-88.961l1.376,2.3c1.021,1.7,3.217,3.03,5.536,4.442,3.272,1.988,7.12,4.323,8.385,8.461,3.1-3.169,7.766-3.4,11.727-3.6,2.633-.133,5.113-.258,6.5-1.205l2.21-1.513L35.1-77.4c.121,1.978,1.459,4.18,2.875,6.5,2.009,3.308,4.372,7.2,3.542,11.491a9.891,9.891,0,0,1,2.921-.439c3.229,0,6.366,1.491,9.12,2.8,2.383,1.134,4.549,2.2,6.3,2.035l2.474-.258c.034.052.073.1.105.159L61.4-52.852c-.818,1.8-.681,4.374-.53,7.094.21,3.888.461,8.468-2.333,11.858,4.468.8,7.309,4.656,9.638,7.823,1.561,2.123,3.044,4.132,4.591,4.767l1.886.774c.024.212.042.427.064.639M39.592,27.987a56.941,56.941,0,0,0,16.736-40.4,56.958,56.958,0,0,0-16.736-40.4A56.934,56.934,0,0,0-.809-69.54a56.936,56.936,0,0,0-40.4,16.73,56.944,56.944,0,0,0-16.73,40.4,56.92,56.92,0,0,0,16.73,40.394A56.925,56.925,0,0,0-.809,44.721a56.929,56.929,0,0,0,40.4-16.734m13.6-40.4A53.8,53.8,0,0,1,37.38,25.771,53.821,53.821,0,0,1-.809,41.59,53.8,53.8,0,0,1-38.989,25.771,53.8,53.8,0,0,1-54.808-12.41,53.82,53.82,0,0,1-38.989-50.592,53.8,53.8,0,0,1-.809-66.407,53.826,53.826,0,0,1,37.38-50.592,53.823,53.823,0,0,1,53.193-12.41M35.99,15.758l3.5.318.6-.786-4.4-.32-2.025-1.553-.5.661,2.027,1.547,1.485,4.136.572-.749Zm3.536-3.139a2.424,2.424,0,0,0,3.105-1.368c.945-1.733.036-3.364-1.557-4.233a2.994,2.994,0,0,0-4.188,1.1,2.439,2.439,0,0,0-.143,2.2l-.788-.179-.252.461,2.887,1.573,1.31-2.4-.616-.336-.953,1.751a1.883,1.883,0,0,1-.83-2.734,2.246,2.246,0,0,1,3.213-.687c1.173.639,2.021,1.817,1.3,3.147a1.688,1.688,0,0,1-2.091.973Zm2.335-7.057A3.005,3.005,0,1,0,43.817-.1a3.006,3.006,0,1,0-1.956,5.659m.27-.786c-1.191-.415-2.22-1.445-1.721-2.887s1.944-1.61,3.133-1.2,2.222,1.445,1.725,2.883-1.946,1.616-3.137,1.2m.226-9.9L47.806-4.1l.153-.818L41.819-6.074l-.764,4.064.691.129Zm6.237-5.18a3,3,0,0,0-3.143-3.125,3,3,0,0,0-3.4,2.853A3,3,0,0,0,45.2-7.454a3,3,0,0,0,3.391-2.855m-.695-.028c-.066,1.519-1.4,2.1-2.659,2.051s-2.547-.743-2.484-2.262,1.4-2.109,2.659-2.055,2.544.741,2.484,2.266m-5.667-4.682,6.2-.727-.091-.784-5.029.594,0-.016,4.644-3.858-.1-.878-6.2.727.1.784,4.972-.588v.02l-4.595,3.822ZM41.3-21.754l6.01-1.7-.23-.8-2.583.733-.9-3.165,2.583-.733-.226-.8-6.006,1.7.226.8,2.752-.78.9,3.161-2.752.782Zm2.837-11.27c-.81-1.745-2.585-2.061-4.231-1.3s-2.551,2.228-1.737,3.987a2.545,2.545,0,0,0,3.411,1.4l-.353-.755a1.766,1.766,0,0,1-2.393-.876c-.627-1.358.183-2.43,1.479-3.03,1.183-.548,2.559-.494,3.185.856a1.652,1.652,0,0,1-.469,2.148l.349.753a2.392,2.392,0,0,0,.758-3.187m-3.05-4.094.584-.385-2.367-3.6-5.212,3.431,2.381,3.624.584-.385-1.928-2.929,1.807-1.187,1.779,2.712.59-.385-1.783-2.71,1.658-1.09Zm-3.53-5.206.528-.461L34.8-46.551l-.53.459,1.37,1.573-4.19,3.638.55.627,4.18-3.64Zm-7.009-7.257.425-.556-3.256-2.5-3.8,4.958.659.5,1.741-2.27,2.275,1.747.425-.556L26.739-50l1.205-1.577Zm-6.358-1.743a3,3,0,0,0-1.029-4.313,3,3,0,0,0-4.2,1.412,3,3,0,0,0,1.029,4.311,3,3,0,0,0,4.2-1.41m-.729-.4c-.608,1.1-1.8,1.942-3.135,1.2s-1.253-2.194-.639-3.294,1.8-1.942,3.133-1.2,1.253,2.2.641,3.3m-8.518-6.687.195-.671-4.14-1.2-1.737,6,4.168,1.2.195-.671-3.366-.973.6-2.073,3.115.9.191-.673-3.111-.9.548-1.9ZM7.278-59.1l.822.109A2.426,2.426,0,0,0,5.71-61.394c-1.964-.254-3.153,1.175-3.389,2.978a2.994,2.994,0,0,0,2.54,3.509,2.436,2.436,0,0,0,2.1-.659l.121.8L7.6-54.7l.427-3.258-2.716-.357-.089.693,1.976.262A1.879,1.879,0,0,1,4.949-55.6a2.246,2.246,0,0,1-1.8-2.746c.177-1.328.969-2.547,2.47-2.353a1.7,1.7,0,0,1,1.66,1.6M4.05-44.169l-3.155.036v0L-.112-47.123l-.008.02-.935,2.99,0,0-3.155.036,2.571,1.827-.939,3.006,0,.008,2.534-1.88L2.515-39.3l.012.014L1.516-42.282l.006-.006ZM-.07-42.9l0,0,0,0Zm0,0-.008,0h0Zm.028-.014-.014.008h0Zm.026.034L-.066-42.9l0,0,0,0v0l0-.01v.01h0l0,0v0h0Zm-3.612-12.5,4.338-.085-.014-.7-3.507.071-.046-2.162,3.246-.066-.012-.7-3.248.068-.038-1.986,3.481-.07-.016-.7-4.309.085Zm-5.365.7,4.1-.614L-5-55.989l-3.272.49-.82-5.488-.822.121Zm-5.25,1.36,3.977-1.13-.189-.671-3.179.9-1.515-5.337-.8.228ZM-17-55.741a3,3,0,0,0-4.072-1.753,3,3,0,0,0-1.386,4.213,3,3,0,0,0,4.072,1.757A3,3,0,0,0-17-55.741m-1.674,3.578c-1.386.625-2.508-.31-3.026-1.457s-.475-2.611.913-3.236,2.51.31,3.03,1.459.473,2.609-.917,3.235m-4.809.34-.693.459a1.769,1.769,0,0,1-.508,2.5c-1.247.826-2.428.181-3.215-1-.721-1.086-.874-2.456.365-3.276a1.645,1.645,0,0,1,2.194.141l.693-.461a2.388,2.388,0,0,0-3.264-.268c-1.6,1.06-1.648,2.865-.647,4.372s2.583,2.19,4.2,1.118a2.544,2.544,0,0,0,.872-3.578m-.641,8.278,1.338.951-.488,1.565v.006L-21.955-42l1.334.945.006.008-.526-1.561,0,0,1.316-.977-1.642.016-.526-1.555,0,.01-.486,1.559,0,0Zm2.156.61,0,0,.012,0-.006,0,0,0h0v0h0l0,0h0v0Zm-.012,0h.008l0,0Zm.018,0-.006,0h0Zm8.151-.608,1.34.951-.488,1.565,0,.006L-11.642-42l1.332.945.008.008-.526-1.561,0,0,1.318-.977-1.644.016-.524-1.555,0,.01-.486,1.559-1.642.016Zm2.158.612,0,0,0-.006v.006l0,0,.01,0-.008,0h0v0h0v.006h0Zm-.012,0h0l0,0h0Zm21.017-.612,1.338.951-.486,1.565v.006L11.522-42l1.334.945.008.008-.526-1.561,0,0,1.316-.977-1.644.016L11.49-45.13l0,.01L11-43.561v0Zm2.158.608.014,0-.008,0-.006,0Zm-.014,0H11.5l0,0h0Zm10.579-2.2v.01l-.486,1.559,0,0-1.64.018,1.338.951-.49,1.565v.006L22.115-42l1.332.945.006.008-.526-1.561,0,0,1.316-.977-1.64.016Zm.024,2.2v0h0v0l.012,0-.008,0,0,0h0v0h0l0,0h0Zm-.01,0h0v0Zm-49.6,10.873h-1.8V14.4c9.052.034,19-5.133,27.131-1.868H.232C9.564,9.6,18.282,13.536,27.682,14.4V-32.061h-1.8l0,0c-8.8-.808-16.973-4.5-25.717-1.749l-2.256,0c-7.617-3.058-16.935,1.783-25.413,1.751Zm0,1.505c8.554-.55,17.731-4.857,25.326-1.809H.232c8.733-2.744,16.929.528,25.648,1.666l0,23.342,0,20.185c-8.8-.806-16.973-4.5-25.717-1.749H-2.1c-7.615-3.058-16.933,1.783-25.411,1.749V-30.556ZM-3.64-28.516c-7.843-2.353-12.114.892-21.166,1.577v.4C-17.68-27-10.04-30.446-3.714-28h.393v-.52ZM-24.806-24.21v.4c7.126-.455,14.767-3.9,21.093-1.451h.393v-.52h-.32c-7.843-2.351-12.114.892-21.166,1.575m0,2.555v.4c7.126-.453,14.767-3.9,21.093-1.451h.393v-.52h-.32c-7.843-2.353-12.114.894-21.166,1.577m0,2.673v.4c7.126-.455,14.767-3.9,21.093-1.451h.393v-.522l-.32,0c-7.843-2.353-12.114.892-21.166,1.577m0,2.671v.4c7.126-.453,14.767-3.9,21.093-1.451h.393v-.52h-.32c-7.843-2.351-12.114.894-21.166,1.577m0,2.671v.4c7.126-.453,14.767-3.9,21.093-1.451h.393v-.52h-.32c-7.843-2.353-12.114.892-21.166,1.575m0,2.671v.4c7.126-.453,14.767-3.9,21.093-1.449h.393v-.522h-.32c-7.843-2.351-12.114.892-21.166,1.575m0,2.675V-7.9c7.126-.451,14.767-3.9,21.093-1.449h.393v-.522h-.32c-7.843-2.351-12.114.894-21.166,1.579m0,2.669v.4c7.126-.453,14.767-3.9,21.093-1.451h.393V-7.2h-.32c-7.843-2.353-12.114.894-21.166,1.575m0,2.675v.393c7.126-.453,14.767-3.9,21.093-1.451h.393v-.52h-.32c-7.843-2.349-12.114.894-21.166,1.579m0,2.671V.111c7.126-.451,14.767-3.9,21.093-1.449h.393V-1.86h-.32c-7.843-2.349-12.114.9-21.166,1.579m0,2.671v.4c7.126-.455,14.767-3.9,21.093-1.453h.393V.812h-.32c-7.843-2.349-12.114.9-21.166,1.577m0,2.671v.4C-17.68,5-10.04,1.557-3.714,4.007h.393v-.52h-.32c-7.843-2.353-12.114.892-21.166,1.573m0,2.675v.4c7.126-.457,14.767-3.9,21.093-1.453h.347V6.16H-3.64c-7.843-2.355-12.114.892-21.166,1.575m26.5-1.406H1.417v.518h.349C8.09,4.4,15.731,7.845,22.859,8.3V7.9C13.807,7.22,9.534,3.973,1.691,6.328m21.293-.872v-.4C13.932,4.378,9.661,1.134,1.818,3.487H1.5v.52h.4C8.216,1.557,15.858,5,22.984,5.457m0-2.671v-.4C13.932,1.708,9.661-1.537,1.818.812H1.5v.52h.4c6.324-2.446,13.967,1,21.093,1.453m0-2.675V-.282C13.932-.963,9.661-4.209,1.818-1.86H1.5v.522h.4c6.324-2.446,13.967,1,21.093,1.449m0-2.671v-.393C13.932-3.637,9.661-6.88,1.818-4.531H1.5v.52h.4c6.324-2.446,13.967,1,21.093,1.451m0-2.671v-.4C13.932-6.31,9.661-9.55,1.818-7.2H1.5v.52h.4c6.324-2.448,13.967,1,21.093,1.451m0-2.673v-.4C13.932-8.98,9.661-12.225,1.818-9.874H1.5v.522h.4c6.324-2.448,13.967,1,21.093,1.449m0-2.671v-.4C13.932-11.653,9.661-14.9,1.818-12.545H1.5v.522h.4c6.324-2.45,13.967,1,21.093,1.449m0-2.671v-.4c-9.052-.683-13.323-3.927-21.166-1.575H1.5v.52h.4c6.324-2.448,13.967,1,21.093,1.451m0-2.673v-.4c-9.052-.683-13.323-3.927-21.166-1.577H1.5v.52h.4c6.324-2.446,13.967,1,21.093,1.451m0-2.673v-.393c-9.052-.685-13.323-3.929-21.166-1.579H1.5v.522h.4c6.324-2.448,13.967,1,21.093,1.449m0-2.671v-.4c-9.052-.683-13.323-3.929-21.166-1.577H1.5v.52h.4c6.324-2.446,13.967,1,21.093,1.451m0-2.553v-.4c-9.052-.683-13.323-3.925-21.166-1.575H1.5v.52h.4c6.324-2.448,13.967,1,21.093,1.451m0-2.732v-.4c-9.052-.685-13.323-3.929-21.166-1.577H1.5V-28h.4c6.324-2.45,13.967.995,21.093,1.451m-54.965-15.3a2.194,2.194,0,0,0-.064-3.437l-2.9-2.734-.572.606,2.9,2.732a1.5,1.5,0,0,1,.123,2.351,1.549,1.549,0,0,1-2.424.089l-2.9-2.734-.57.6,2.9,2.736c1.207,1.14,2.4.957,3.5-.212m-6.67.389a1.659,1.659,0,0,0-2.424.633L-42.742-38.4l5.143,3.542.477-.685-2.2-1.515,1.152-1.672c.457-.661.965-.49,1.521-.216.572.248,1.052.737,1.394.687l.528-.764a3.186,3.186,0,0,1-1.626-.673c-.538-.3-1.066-.479-1.592.04l-.014-.008a1.5,1.5,0,0,0-.689-1.791m-.266,2.575-.981,1.426-1.795-1.233,1.17-1.7a.988.988,0,0,1,1.511-.308c.749.514.538,1.175.1,1.817m-1.638,4.6-3.592-1.729-.363.751,3.594,1.729a1.5,1.5,0,0,1,.83,2.2,1.556,1.556,0,0,1-2.285.822l-3.6-1.733-.359.751,3.594,1.729c1.5.723,2.581.185,3.278-1.265a2.2,2.2,0,0,0-1.1-3.258m-4.92,5.881a2.421,2.421,0,0,0-2.746,1.988c-.56,1.894.667,3.294,2.412,3.81a2.993,2.993,0,0,0,3.858-1.96,2.434,2.434,0,0,0-.322-2.182l.806.01.149-.5-3.153-.933-.772,2.625.671.2.562-1.91a1.876,1.876,0,0,1,1.388,2.494,2.246,2.246,0,0,1-2.994,1.348c-1.283-.379-2.363-1.354-1.936-2.8A1.691,1.691,0,0,1-45.711-27.6Zm2.379,7.422-6.513,1.6-.119.907,5.869,3.242.113-.848-1.773-.943.347-2.615,1.954-.431Zm-2.8,1.505-.278,2.1-2.746-1.436v-.016ZM-50.1-12.3l.05,2.941,6.243-.105-.016-.832-2.665.044-.034-2.029c-.014-.8.5-.961,1.112-1.056.61-.131,1.285-.014,1.535-.252l-.014-.929a3.173,3.173,0,0,1-1.718.4c-.61.069-1.142.228-1.269.957H-46.9a1.506,1.506,0,0,0-1.6-1.06c-1,.02-1.626.757-1.606,1.926m.7.032a.984.984,0,0,1,1.048-1.126c.907-.016,1.122.645,1.134,1.424l.028,1.729-2.178.036Zm5.639,3.953-5.78,3.4L-49.4-4l6.558,1.412-.133-.848-1.972-.387-.423-2.607,1.751-.973Zm-1.916,4.336-3.046-.582,0-.016,2.712-1.489Zm3.074,2.43-5.913,2,.365,1.078,5.6.187L-46.89,5.27l.365,1.076,5.915-2-.25-.745-4.92,1.666-.008-.018,4.295-3.512-.226-.671L-47.265.884l0-.016L-42.351-.8Zm.778,8.59-3.5,1.91.4.727,3.5-1.906a1.506,1.506,0,0,1,2.277.612,1.559,1.559,0,0,1-.669,2.337l-3.5,1.908.4.727,3.5-1.906c1.459-.792,1.658-1.986.888-3.4a2.2,2.2,0,0,0-3.286-1.009m3.659,8.719-3.6-.57.653.86,4.392.629L-39.2,18.569l.5.663,4.97-3.779-.5-.663-1.739,1.322-1.4-.24,1.146-3.707-.633-.834Zm15.009,5.631a1.32,1.32,0,0,0,1.362,1.449,1.208,1.208,0,0,0,1.289-1.132h-.619a.669.669,0,0,1-.669.641c-.536,0-.743-.492-.743-.959,0-.856.451-1.025.772-1.025a.6.6,0,0,1,.639.53h.619a1.138,1.138,0,0,0-1.267-1.021,1.356,1.356,0,0,0-1.384,1.515m4.321,1.374V21.113a.688.688,0,0,1,.681-.743c.363,0,.54.191.55.631v1.767h.618V20.837a.89.89,0,0,0-.993-.957.994.994,0,0,0-.842.449h-.014V18.887h-.616v3.882Zm-.677,8.727,1.338.951-.488,1.565v0l1.32-.981,1.332.945.006.008-.524-1.559,0,0,1.316-.979-1.642.018-.528-1.557,0,.01-.484,1.559h0Zm2.172.6-.008,0h0l0,0v0h0v0h0v0h0Zm-.026.008h.006l0,0Zm2.389-9.263A1.458,1.458,0,0,0-14,22.5c.05.252.228.342.479.342a1.716,1.716,0,0,0,.391-.068v-.433a.938.938,0,0,1-.151.01c-.115,0-.147-.06-.147-.21V20.7c0-.592-.576-.814-1.124-.818-.623,0-1.237.216-1.279.939h.618c.03-.306.274-.449.621-.449.25,0,.582.06.582.381,0,.363-.4.316-.846.4-.518.06-1.078.173-1.078.876a.853.853,0,0,0,.961.82M-15.321,22c0-.328.238-.425.506-.471a2.075,2.075,0,0,0,.76-.169v.463c0,.393-.423.532-.695.532-.216,0-.572-.077-.572-.355m3.683-2.041h-.584l0,2.812h.616V21.431c0-.619.34-.961.762-.961a2.419,2.419,0,0,1,.266.028v-.6a1.26,1.26,0,0,0-.234-.02.912.912,0,0,0-.82.621h-.01Zm.381,10.52v.776h1.485v4.271H-8.69V29.472H-9.5c-.145.729-.933,1.013-1.761,1m2.305-7.633a1.459,1.459,0,0,0,.975-.342c.048.252.226.342.477.342a1.663,1.663,0,0,0,.389-.068v-.433a.9.9,0,0,1-.151.01c-.115,0-.147-.06-.147-.21V20.7c0-.592-.576-.814-1.126-.814-.618,0-1.235.212-1.277.935h.621c.026-.306.272-.449.619-.449.25,0,.58.06.58.381,0,.363-.4.316-.842.4-.52.06-1.08.173-1.08.876a.853.853,0,0,0,.961.82m.228-.49c-.216,0-.57-.077-.57-.355,0-.328.238-.425.5-.471a2.1,2.1,0,0,0,.762-.169v.463c0,.393-.425.532-.7.532m2.395-.959a1.32,1.32,0,0,0,1.362,1.449,1.211,1.211,0,0,0,1.291-1.132H-4.3a.667.667,0,0,1-.669.641c-.538,0-.745-.492-.745-.959,0-.856.453-1.025.772-1.025a.6.6,0,0,1,.641.53h.621A1.141,1.141,0,0,0-4.943,19.88a1.357,1.357,0,0,0-1.386,1.515m3.786,11.334.016.022c-.058.8-.181,2.073-1.249,2.073a.849.849,0,0,1-.884-.83h-.987a1.756,1.756,0,0,0,1.825,1.65c1.712,0,2.281-1.684,2.281-3.129,0-1.761-.425-3.161-2.134-3.161a1.951,1.951,0,0,0-2.083,2.065,1.865,1.865,0,0,0,1.91,2.041,1.45,1.45,0,0,0,1.3-.731m-.077-1.32a1.135,1.135,0,0,1-1.1,1.273c-.721,0-1.056-.612-1.056-1.273s.336-1.231,1.056-1.231a1.111,1.111,0,0,1,1.1,1.231m.8-9.487v-1.5h.56v-.463l-.56,0v-.842h-.621v.844H-2.91v.463h.467V22.08c.012.465.133.717.778.717a3.939,3.939,0,0,0,.4-.034v-.477a1.167,1.167,0,0,1-.262.02c-.276,0-.3-.129-.3-.385m1.414-.556A1.334,1.334,0,0,0,.968,22.844a1.229,1.229,0,0,0,1.271-.955H1.655a.655.655,0,0,1-.687.465.747.747,0,0,1-.755-.83H2.275A1.384,1.384,0,0,0,.952,19.88a1.385,1.385,0,0,0-1.36,1.485m.621-.25a.736.736,0,0,1,.739-.745.736.736,0,0,1,.707.745Zm-.33,12.628a1.917,1.917,0,0,0,2.131,1.9,1.923,1.923,0,0,0,2.138-1.9,1.439,1.439,0,0,0-1.108-1.477V32.25A1.273,1.273,0,0,0,3.9,31c0-1.031-.681-1.652-1.884-1.654S.132,29.974.132,31A1.275,1.275,0,0,0,.988,32.25v.016a1.437,1.437,0,0,0-1.1,1.477m3.082-2.688a.863.863,0,0,1-.951.89.862.862,0,0,1-.947-.89.883.883,0,0,1,.947-.923.884.884,0,0,1,.951.923m-2.1,2.688a1.048,1.048,0,0,1,1.148-1.062,1.052,1.052,0,0,1,1.152,1.062,1.074,1.074,0,0,1-1.152,1.122A1.071,1.071,0,0,1,.867,33.743M4.677,20.47a2.561,2.561,0,0,1,.268.028v-.6a1.281,1.281,0,0,0-.234-.02.905.905,0,0,0-.82.621h-.01v-.544H3.3v2.812h.616l.006-1.338c0-.619.336-.961.758-.961m3.149-1h.618v-.586H7.826Zm.619.486-.619,0v2.812h.619Zm-.367,9.513-2.589,3.64v.977H8.079v1.436h.935V34.089h.774V33.31H9.014V29.472ZM8.061,30.65h.018V33.31H6.246Zm1.455-8.784c.008.663.532.979,1.243.979.582,0,1.253-.246,1.253-.913,0-.554-.453-.717-.9-.82s-.919-.149-.919-.453c0-.242.334-.288.514-.288.27,0,.514.083.572.377h.643c-.071-.625-.6-.868-1.169-.868-.512,0-1.175.193-1.175.806,0,.57.445.735.9.832s.9.139.921.469-.393.367-.625.367c-.334,0-.6-.131-.639-.488Zm5.589.9h.616V18.887h-.616Zm0-3.882,1.851.586h.623v-.586h-.623Zm.623.486h-.623v2.81h.623ZM14.19,31.5l1.34.951-.488,1.565,0,0,1.32-.981,1.334.945.006.008-.524-1.559v0l1.318-.979-1.642.018-.526-1.557,0,.01-.484,1.559h0Zm2.168.6,0,0h0Zm-.014.01.006,0v0Zm-.008,0h0v0Zm2.645-12.148-.463,0v.465h.463v2.347H19.6V20.422h.524v-.465l-.524,0v-.292c0-.232.135-.292.306-.292a.971.971,0,0,1,.288.036v-.484a1.716,1.716,0,0,0-.439-.04c-.4,0-.776.123-.776.838Zm1.938,1.406A1.333,1.333,0,0,0,22.3,22.844a1.226,1.226,0,0,0,1.269-.955h-.588a.646.646,0,0,1-.681.465.75.75,0,0,1-.758-.83H23.6a1.36,1.36,0,1,0-2.684-.159m.618-.25a.724.724,0,1,1,1.447,0ZM-80.391,93.84c-4.176,0-4.245-2.768-4.245-4.41V79.818h-4.551V90.556c0,1.876.236,6.471,8.8,6.471s8.792-4.595,8.792-6.471V79.818h-4.549V89.43c0,1.642-.07,4.41-4.243,4.41m-11.578,2.722-8.278-10.015,7.69-6.729h-6.122l-7.783,7.2v-7.2h-4.551V96.563h4.551V91.591l2.649-2.275,5.7,7.247Zm-19.453,11.872c0,2.534,1.579,4.944,5.695,4.944.641,0,4.547-.052,5.1-3.87h-2.5a2.563,2.563,0,0,1-2.865,2.027,2.823,2.823,0,0,1-2.933-3.1,2.955,2.955,0,0,1,3.195-3.111,2.421,2.421,0,0,1,2.549,1.739h2.5c-.5-3.107-3.663-3.576-5.049-3.576-3.56,0-5.695,1.976-5.695,4.948m12.41,0c0,2.534,1.581,4.944,5.695,4.944s5.691-2.41,5.691-4.944-1.579-4.948-5.691-4.948-5.695,2.41-5.695,4.948m2.5,0a2.9,2.9,0,0,1,3.195-3.111,2.9,2.9,0,0,1,3.193,3.111,2.894,2.894,0,0,1-3.193,3.1,2.9,2.9,0,0,1-3.195-3.1m13.416-8h-2.395v12.6h2.395Zm5,0h-2.4v12.6h2.4Zm2.238,8.085c0,2.45,1.545,4.861,5.695,4.861a5.366,5.366,0,0,0,5.276-3.056h-2.605a2.8,2.8,0,0,1-2.74,1.32,2.78,2.78,0,0,1-3.127-2.605h8.679v-.345c0-2.692-1.561-5.206-5.641-5.206-3.262,0-5.536,1.96-5.536,5.031m2.5-1.007a2.978,2.978,0,0,1,3.074-2.395,2.929,2.929,0,0,1,3.107,2.395Zm19.3,3.941v1.11c0,1.2-.4,2.657-3.139,2.657-1.457,0-2.587-.191-2.829-1.372h-2.5c.208,2.379,2.551,3,5.4,3,4.061,0,5.468-1.944,5.468-4.132V103.8h-2.4v1.356h-.034c-.554-.975-1.926-1.563-3.784-1.563-3.54,0-5.1,2.327-5.1,4.686,0,3.419,2.688,4.652,5.121,4.652a5.064,5.064,0,0,0,3.749-1.475Zm0-3.244a2.855,2.855,0,0,1-3.088,2.879c-2.518,0-3.332-1.491-3.332-2.843a2.885,2.885,0,0,1,3.123-2.818c1.233,0,3.3.574,3.3,2.782m-8.514-11.645V83.146h.046l5.3,13.417h3.8l5.3-13.417h.048V96.563h4.408V79.818h-6.683l-4.972,12.054L-60.3,79.818h-6.683V96.563Zm13.15,11.955c0,2.45,1.545,4.861,5.693,4.861a5.362,5.362,0,0,0,5.276-3.056h-2.6a2.8,2.8,0,0,1-2.742,1.32,2.779,2.779,0,0,1-3.125-2.605h8.679v-.345c0-2.692-1.561-5.206-5.641-5.206-3.262,0-5.536,1.96-5.536,5.031m2.5-1.007a2.978,2.978,0,0,1,3.074-2.395,2.933,2.933,0,0,1,3.107,2.395ZM-40.8,96.563h4.9l1.362-3.449h7.69l1.36,3.449h4.9l-7.362-16.744h-5.49Zm7.482-6.5,2.627-6.634,2.627,6.634Zm3.469,18.37c0,2.534,1.579,4.944,5.693,4.944s5.693-2.41,5.693-4.944-1.579-4.948-5.693-4.948-5.693,2.41-5.693,4.948m2.5,0a2.9,2.9,0,0,1,3.193-3.111,2.9,2.9,0,0,1,3.193,3.111,2.894,2.894,0,0,1-3.193,3.1,2.894,2.894,0,0,1-3.193-3.1m9.392,17.042c0,1.582.987,3.09,3.558,3.09.4,0,2.839-.032,3.187-2.418H-12.77a1.6,1.6,0,0,1-1.791,1.273,1.767,1.767,0,0,1-1.833-1.944,1.845,1.845,0,0,1,2-1.942,1.518,1.518,0,0,1,1.594,1.086h1.563c-.318-1.94-2.289-2.234-3.157-2.234-2.224,0-3.558,1.235-3.558,3.09m4.684-19.909h2.516v-1.735H-13.27v-.711c0-.836.191-1.094,1.285-1.094a10.717,10.717,0,0,1,1.231.071v-1.737c-.556-.038-1.11-.069-2.152-.069-2.5,0-2.76,1.338-2.76,2.359v1.181h-1.89v1.735h1.89v7.464h2.4Zm6.336,14.91h-1.5v7.875h1.5v-3.094a1.652,1.652,0,0,1,1.791-1.66c1.237,0,1.444.7,1.444,1.324v3.429h1.5v-3.906c0-1.551-1.2-2-2.44-2a2.777,2.777,0,0,0-2.268,1.019h-.022Zm4.1-32.029V88.4a3.813,3.813,0,0,0,2.72-4.033c0-1.714-.774-4.549-5.419-4.549H-17.7V96.563h4.549V90.417H-7.5c1.408,0,2.416.584,2.416,2.931,0,1.757.024,2.438.445,3.215H.331c-.8-.844-.868-2.818-.868-3.636,0-1.642-.3-4.176-2.3-4.479M-4.947,85.1a2.03,2.03,0,0,1-2.18,2.131h-6.026V83.007h5.792c1.1,0,2.414.423,2.414,2.089m.963,20.471h1.91v4.894c0,1.735.222,2.78,3.139,2.78A12.08,12.08,0,0,0,2.9,113.1v-1.733c-.572.02-1.126.036-1.716.036-.818,0-.87-.572-.87-1.63v-4.2h2.5v-1.735H.319v-2.847H-2.074v2.847h-1.91Zm4.591,21.2c0,1.126.846,1.8,2.341,1.8a3.7,3.7,0,0,0,2.7-.79c.042.218.151.739,1.126.739a4.6,4.6,0,0,0,1.064-.131v-1.05a3.731,3.731,0,0,1-.486.032.288.288,0,0,1-.326-.326v-2.724c0-.749-.089-1.928-3.094-1.928-1.7,0-2.818.465-3.036,1.972H2.362c.056-.639.586-.955,1.573-.955.87,0,1.628.163,1.628.824,0,.445-.228.52-2.375.727-.957.089-2.581.228-2.581,1.815m1.561-.056c0-.488.27-.737,1.4-.868a7.181,7.181,0,0,0,1.96-.357v.552c0,1.269-1.356,1.577-2.156,1.577-.512,0-1.205-.145-1.205-.9m7.994-13.335a5.362,5.362,0,0,0,5.276-3.056H12.832a2.792,2.792,0,0,1-2.74,1.32,2.781,2.781,0,0,1-3.127-2.605h8.679v-.345c0-2.692-1.559-5.206-5.639-5.206-3.266,0-5.536,1.96-5.536,5.031,0,2.45,1.543,4.861,5.693,4.861m-3.2-5.867a2.978,2.978,0,0,1,3.076-2.395,2.926,2.926,0,0,1,3.105,2.395Zm4.869,15.09h-1.5v5.75h1.5v-2.78a1.693,1.693,0,0,1,1.835-1.733,2.975,2.975,0,0,1,.955.139v-1.471a3.49,3.49,0,0,0-.6-.058,2.4,2.4,0,0,0-2.172,1.271h-.02ZM8.227,93.114h7.694l1.358,3.449h4.9l-7.36-16.744H9.327L1.965,96.563h4.9Zm1.219-3.05,2.625-6.634L14.7,90.064Zm7.507,36.705c0,1.126.846,1.8,2.341,1.8a3.717,3.717,0,0,0,2.7-.79c.042.218.151.739,1.126.739a4.577,4.577,0,0,0,1.062-.131v-1.05a3.731,3.731,0,0,1-.486.032.288.288,0,0,1-.326-.326v-2.724c0-.749-.087-1.928-3.09-1.928-1.706,0-2.821.465-3.04,1.972h1.465c.056-.639.584-.955,1.575-.955.866,0,1.626.163,1.626.824,0,.445-.228.52-2.379.727-.953.089-2.579.228-2.579,1.815m1.561-.056c0-.488.272-.737,1.4-.868a7.22,7.22,0,0,0,1.964-.357v.552c0,1.269-1.356,1.577-2.158,1.577-.512,0-1.205-.145-1.205-.9m7.922-1.237c0,1.582.983,3.09,3.554,3.09.4,0,2.841-.032,3.189-2.418H31.619a1.605,1.605,0,0,1-1.791,1.273A1.767,1.767,0,0,1,28,125.476a1.843,1.843,0,0,1,2-1.942,1.516,1.516,0,0,1,1.594,1.086H33.15c-.318-1.94-2.291-2.234-3.159-2.234-2.224,0-3.554,1.235-3.554,3.09m6.181-17.394a2.644,2.644,0,0,1,2.863-2.657c1.982,0,2.311,1.13,2.311,2.121v5.484h2.395v-6.249c0-2.48-1.926-3.193-3.906-3.193a4.433,4.433,0,0,0-3.628,1.63h-.036v-4.787H30.224v12.6h2.395ZM36.425,122.6H35.231v1.086h1.193v3.058c0,1.086.141,1.733,1.962,1.733a8.056,8.056,0,0,0,1.154-.083v-1.086c-.361.012-.707.024-1.074.024-.514,0-.546-.361-.546-1.021v-2.625h1.565V122.6H37.92v-1.779h-1.5Zm-16.51-14.167a2.953,2.953,0,0,1,3.195-3.111,2.422,2.422,0,0,1,2.549,1.739h2.5c-.5-3.107-3.661-3.576-5.049-3.576-3.56,0-5.695,1.976-5.695,4.948,0,2.534,1.581,4.944,5.695,4.944.641,0,4.547-.052,5.1-3.87h-2.5a2.56,2.56,0,0,1-2.863,2.027,2.823,2.823,0,0,1-2.933-3.1M34.252,97.027c2.907,0,5.44-.7,7.035-2.414l.61,1.95h2.3V87.226H35.658v2.909h4.057c-.54,2.768-2.462,3.705-4.948,3.705-4.128,0-5.579-3.05-5.579-5.651s1.451-5.651,5.579-5.651A4.121,4.121,0,0,1,39.034,85.3H44.1c-.818-4.595-5.206-5.955-9.848-5.955-6.33,0-9.9,3.659-9.9,8.842,0,6.217,3.8,8.838,9.9,8.838m7.781,28.5c0,1.531.965,3.038,3.558,3.038a3.359,3.359,0,0,0,3.3-1.9H47.264a1.761,1.761,0,0,1-1.718.822,1.737,1.737,0,0,1-1.952-1.63h5.425v-.214c0-1.682-.977-3.252-3.526-3.252-2.039,0-3.459,1.223-3.459,3.141m1.561-.623a1.861,1.861,0,0,1,1.918-1.5,1.835,1.835,0,0,1,1.946,1.5Zm4.317-19.478c1.978,0,2.307,1.13,2.307,2.121v5.484h2.4v-6.249c0-2.48-1.93-3.193-3.906-3.193a4.441,4.441,0,0,0-3.632,1.63h-.034v-1.388H42.651v9.2h2.395v-4.948a2.644,2.644,0,0,1,2.865-2.657m5.48,17.175h-1.5v5.75h1.5v-2.78a1.691,1.691,0,0,1,1.833-1.733,2.962,2.962,0,0,1,.955.139v-1.471a3.466,3.466,0,0,0-.6-.058,2.4,2.4,0,0,0-2.172,1.271h-.02Zm6.981-9.223c4.112,0,5.693-2.41,5.693-4.944s-1.581-4.948-5.693-4.948-5.693,2.41-5.693,4.948,1.581,4.944,5.693,4.944m-3.195-4.944a2.9,2.9,0,0,1,3.195-3.111,3.108,3.108,0,1,1,0,6.213,2.9,2.9,0,0,1-3.195-3.1m8.786,12.042h-1.5v1.213h1.5Zm0,2.125h-1.5v5.75h1.5Zm-4.3-42.783V89.43c0,1.642-.069,4.41-4.245,4.41s-4.245-2.768-4.245-4.41V79.818H48.62V90.556c0,1.876.234,6.471,8.794,6.471s8.792-4.595,8.792-6.471V79.818ZM70.6,100.432H68.2v12.6h2.4Zm-.2,26.118H68.773c.054,1.757,2,2.015,3.223,2.015,1.779,0,3.179-.5,3.179-1.96,0-1.336-1.237-1.519-3.125-1.791-1.444-.206-1.582-.282-1.582-.751,0-.3.453-.661,1.3-.661.51,0,1.509.1,1.63.955h1.559c-.087-1.841-2.224-1.972-3.113-1.972-.967,0-2.875.214-2.875,1.853,0,1.312.933,1.519,2.71,1.757,1.62.214,1.868.371,1.868.812,0,.544-.814.741-1.561.741-.546,0-1.543-.129-1.586-1m8.026-13.172c4.112,0,5.691-2.41,5.691-4.944s-1.579-4.948-5.691-4.948-5.7,2.41-5.7,4.948,1.582,4.944,5.7,4.944m-3.2-4.944a3.2,3.2,0,1,1,3.2,3.1,2.9,2.9,0,0,1-3.2-3.1m9.914,12.042h-1.5v7.875h1.5Zm4.64,0H88.29v1.213h1.493Zm0,2.125H88.29v5.75h1.493Zm3.56,0H92.161v1.086h1.181v4.664h1.5v-4.664h1.573V122.6H94.84v-.443c0-.52.117-.683.8-.683a7.546,7.546,0,0,1,.77.04v-1.082c-.345-.024-.695-.044-1.348-.044-1.559,0-1.721.836-1.721,1.475Zm7.678-18.77h-2.6l4.287,9.044-.536,1.11a1.333,1.333,0,0,1-1.39.713c-.522,0-1.009-.016-1.2-.036V116.5c.467.016,1.094.032,1.493.032,2,0,2.583-.294,3.314-1.872l5.016-10.831h-2.549l-2.885,6.578Zm-2.46,21.7c0,1.531.967,3.038,3.558,3.038a3.35,3.35,0,0,0,3.294-1.9h-1.626a2.061,2.061,0,0,1-3.663-.808h5.423v-.214c0-1.682-.975-3.252-3.524-3.252-2.041,0-3.461,1.223-3.461,3.141m1.563-.623a1.859,1.859,0,0,1,1.92-1.5,1.829,1.829,0,0,1,1.94,1.5Z" transform="translate(111.421 91.882)"/></g></g></g></svg>