<svg xmlns="http://www.w3.org/2000/svg" width="711.14" height="715.198" viewBox="0 0 711.14 715.198"><defs><style>.a{opacity:0.14;isolation:isolate;}.b{fill:#b3b3b3;}</style></defs><g class="a" transform="translate(-25.569 -17.819)"><path class="b" d="M155.3,120.538a29.561,29.561,0,0,0-29.56,29.563A29.561,29.561,0,0,0,155.3,120.538Z" transform="translate(73.977 75.857)"/><path class="b" d="M405.9,177.435a19.708,19.708,0,0,0-19.706-19.709A19.708,19.708,0,0,0,405.9,177.435Z" transform="translate(266.317 103.32)"/><path class="b" d="M126.773,138.745a25.977,25.977,0,0,0,25.977,25.98A25.979,25.979,0,0,0,126.773,138.745Z" transform="translate(74.738 89.303)"/><path class="b" d="M355.864,161.747a21.8,21.8,0,0,0-21.8-21.8A21.8,21.8,0,0,0,355.864,161.747Z" transform="translate(227.824 90.191)"/><path class="b" d="M318.44,398.4a16.422,16.422,0,0,0,16.422-16.423A16.423,16.423,0,0,0,318.44,398.4Z" transform="translate(216.282 268.924)"/><path class="b" d="M332.437,378.794a27.471,27.471,0,0,0,27.47,27.473A27.472,27.472,0,0,0,332.437,378.794Z" transform="translate(226.619 266.577)"/><path class="b" d="M282.889,329.239a20.6,20.6,0,0,0,20.6,20.6A20.6,20.6,0,0,0,282.889,329.239Z" transform="translate(190.028 229.981)"/><path class="b" d="M153.813,86.785a27.472,27.472,0,0,0-27.47,27.473A27.471,27.471,0,0,0,153.813,86.785Z" transform="translate(74.421 50.931)"/><path class="b" d="M353.1,90.273a17.916,17.916,0,0,0-17.915-17.917A17.916,17.916,0,0,0,353.1,90.273Z" transform="translate(228.649 40.275)"/><path class="b" d="M442.588,105.25a22.992,22.992,0,0,0-22.99,23A22.993,22.993,0,0,0,442.588,105.25Z" transform="translate(290.987 64.567)"/><path class="b" d="M301.152,38.174a17.319,17.319,0,0,0-17.319,17.321A17.32,17.32,0,0,0,301.152,38.174Z" transform="translate(190.726 15.032)"/><path class="b" d="M402.251,248.908a23.588,23.588,0,0,0,23.588-23.59A23.589,23.589,0,0,0,402.251,248.908Z" transform="translate(278.176 153.236)"/><path class="b" d="M291.422,258.469a27.77,27.77,0,0,0-27.769,27.772A27.77,27.77,0,0,0,291.422,258.469Z" transform="translate(175.823 177.718)"/><path class="b" d="M384.476,336.283A25.68,25.68,0,0,0,410.153,310.6,25.679,25.679,0,0,0,384.476,336.283Z" transform="translate(265.049 216.218)"/><path class="b" d="M390.426,294.455a22.1,22.1,0,0,0-22.094,22.1A22.1,22.1,0,0,0,390.426,294.455Z" transform="translate(253.127 204.293)"/><path class="b" d="M152.961,155.837a26.276,26.276,0,0,0-26.274,26.277A26.275,26.275,0,0,0,152.961,155.837Z" transform="translate(74.675 101.925)"/><path class="b" d="M372.4,246.993a20.9,20.9,0,0,0-20.9-20.9A20.9,20.9,0,0,0,372.4,246.993Z" transform="translate(240.698 153.807)"/><path class="b" d="M134.678,36.027A24.784,24.784,0,0,0,109.9,60.813,24.784,24.784,0,0,0,134.678,36.027Z" transform="translate(62.275 13.446)"/><path class="b" d="M332.952,147.335a25.678,25.678,0,0,0,25.677-25.681A25.68,25.68,0,0,0,332.952,147.335Z" transform="translate(226.999 76.681)"/><path class="b" d="M248.564,157.492a15.827,15.827,0,0,0-15.825-15.827A15.827,15.827,0,0,0,248.564,157.492Z" transform="translate(152.993 91.459)"/><path class="b" d="M275.311,149.888a29.262,29.262,0,0,0-29.261-29.264A29.261,29.261,0,0,0,275.311,149.888Z" transform="translate(162.823 75.921)"/><path class="b" d="M265.714,415.124a20.6,20.6,0,0,0,20.6,20.6A20.6,20.6,0,0,0,265.714,415.124Z" transform="translate(177.345 293.406)"/><path class="b" d="M284.52,399.578a14.931,14.931,0,0,0,14.93,14.932A14.932,14.932,0,0,0,284.52,399.578Z" transform="translate(191.233 281.926)"/><path class="b" d="M339.967,139.432a23.591,23.591,0,0,0-23.588,23.591A23.589,23.589,0,0,0,339.967,139.432Z" transform="translate(214.76 89.81)"/><path class="b" d="M299.891,144.144a21.2,21.2,0,0,0,21.2-21.2A21.2,21.2,0,0,0,299.891,144.144Z" transform="translate(202.584 77.633)"/><path class="b" d="M341.242,147.124a25.381,25.381,0,0,0-25.379-25.384A25.381,25.381,0,0,0,341.242,147.124Z" transform="translate(214.38 76.745)"/><path class="b" d="M197.1,143.507a20.306,20.306,0,0,0,20.3-20.307A20.306,20.306,0,0,0,197.1,143.507Z" transform="translate(126.675 77.823)"/><path class="b" d="M420.734,226.626A16.423,16.423,0,0,0,404.312,210.2,16.423,16.423,0,0,0,420.734,226.626Z" transform="translate(279.698 142.073)"/><path class="b" d="M419.6,231.307a22.993,22.993,0,0,0,22.99-23A22.992,22.992,0,0,0,419.6,231.307Z" transform="translate(290.987 140.677)"/><path class="b" d="M335.712,107.239A17.616,17.616,0,0,0,318.1,89.619,17.619,17.619,0,0,0,335.712,107.239Z" transform="translate(216.028 53.024)"/><path class="b" d="M324.493,130.371a25.977,25.977,0,0,0-25.975-25.98A25.976,25.976,0,0,0,324.493,130.371Z" transform="translate(201.57 63.933)"/><path class="b" d="M395.532,201.419a29.262,29.262,0,0,0-29.26-29.264A29.261,29.261,0,0,0,395.532,201.419Z" transform="translate(251.605 113.976)"/><path class="b" d="M149.133,54.32a20.9,20.9,0,0,0-20.9,20.9A20.9,20.9,0,0,0,149.133,54.32Z" transform="translate(75.816 26.956)"/><path class="b" d="M127.975,71.24a21.8,21.8,0,0,0,21.8,21.8A21.8,21.8,0,0,0,127.975,71.24Z" transform="translate(75.626 39.451)"/><path class="b" d="M403.56,141.494a16.422,16.422,0,0,0-16.422,16.424A16.423,16.423,0,0,0,403.56,141.494Z" transform="translate(267.015 91.333)"/><path class="b" d="M370.061,210.3a17.618,17.618,0,0,0-17.616-17.62A17.619,17.619,0,0,0,370.061,210.3Z" transform="translate(241.395 129.134)"/><path class="b" d="M247.681,437.856a23.591,23.591,0,0,0,23.588-23.591A23.589,23.589,0,0,0,247.681,437.856Z" transform="translate(164.028 292.772)"/><path class="b" d="M301.575,175.418a17.916,17.916,0,0,0-17.913,17.919A17.916,17.916,0,0,0,301.575,175.418Z" transform="translate(190.599 116.385)"/><path class="b" d="M301.351,209.235a16.125,16.125,0,0,0,16.124-16.124A16.124,16.124,0,0,0,301.351,209.235Z" transform="translate(203.662 129.451)"/><path class="b" d="M350.728,294.026a23.589,23.589,0,0,0,23.588,23.591A23.589,23.589,0,0,0,350.728,294.026Z" transform="translate(240.127 203.976)"/><path class="b" d="M429.88,132.711a29.262,29.262,0,0,0-29.26-29.264A29.261,29.261,0,0,0,429.88,132.711Z" transform="translate(276.972 63.235)"/><path class="b" d="M408.452,145.633a23.292,23.292,0,0,0-23.289-23.292A23.289,23.289,0,0,0,408.452,145.633Z" transform="translate(265.557 77.189)"/><path class="b" d="M342.518,45.337a27.172,27.172,0,0,0-27.169-27.174A27.173,27.173,0,0,0,342.518,45.337Z" transform="translate(214 0.254)"/><path class="b" d="M335.529,106.6a16.722,16.722,0,0,0,16.719-16.723A16.721,16.721,0,0,0,335.529,106.6Z" transform="translate(228.903 53.214)"/><path class="b" d="M358.63,130.158a25.679,25.679,0,0,0-25.677-25.681A25.679,25.679,0,0,0,358.63,130.158Z" transform="translate(226.999 63.996)"/><path class="b" d="M111.974,123.99a17.02,17.02,0,0,0-17.02-17.022A17.021,17.021,0,0,0,111.974,123.99Z" transform="translate(51.24 65.836)"/><path class="b" d="M305.831,214.767a23.888,23.888,0,0,0-23.887-23.889A23.888,23.888,0,0,0,305.831,214.767Z" transform="translate(189.331 127.802)"/><path class="b" d="M422.435,159.619a18.811,18.811,0,0,0-18.811-18.812A18.812,18.812,0,0,0,422.435,159.619Z" transform="translate(279.191 90.825)"/><path class="b" d="M443.227,139.347a23.887,23.887,0,0,0-23.887,23.889A23.888,23.888,0,0,0,443.227,139.347Z" transform="translate(290.796 89.747)"/><path class="b" d="M401.479,147.761a26.276,26.276,0,0,0,26.274-26.279A26.276,26.276,0,0,0,401.479,147.761Z" transform="translate(277.606 76.554)"/><path class="b" d="M60.09,108.088A18.811,18.811,0,0,0,78.9,89.276,18.811,18.811,0,0,0,60.09,108.088Z" transform="translate(25.493 52.77)"/><path class="b" d="M440.461,108.94a20.007,20.007,0,0,0-20-20.008A20.007,20.007,0,0,0,440.461,108.94Z" transform="translate(291.62 52.516)"/><path class="b" d="M266.573,278.566a17.619,17.619,0,0,0,17.616,17.62A17.618,17.618,0,0,0,266.573,278.566Z" transform="translate(177.979 192.559)"/><path class="b" d="M266.59,278.738a17.021,17.021,0,0,0-17.02,17.022A17.021,17.021,0,0,0,266.59,278.738Z" transform="translate(165.423 192.686)"/><path class="b" d="M387.567,227.808A14.93,14.93,0,0,0,402.5,242.74,14.929,14.929,0,0,0,387.567,227.808Z" transform="translate(267.332 155.075)"/><path class="b" d="M322.792,231.731a23.588,23.588,0,0,0-23.588-23.59A23.589,23.589,0,0,0,322.792,231.731Z" transform="translate(202.077 140.551)"/><path class="b" d="M301.265,106.387a16.423,16.423,0,0,0,16.422-16.424A16.423,16.423,0,0,0,301.265,106.387Z" transform="translate(203.599 53.278)"/><path class="b" d="M196.4,244.985a14.931,14.931,0,0,0-14.93,14.932A14.93,14.93,0,0,0,196.4,244.985Z" transform="translate(115.134 167.76)"/><path class="b" d="M344.433,184.668a29.859,29.859,0,0,0-29.857-29.862A29.859,29.859,0,0,0,344.433,184.668Z" transform="translate(213.429 101.164)"/><path class="b" d="M301.437,174.669a15.826,15.826,0,0,0,15.826-15.826A15.824,15.824,0,0,0,301.437,174.669Z" transform="translate(203.726 104.145)"/><path class="b" d="M323,197.59A23.887,23.887,0,0,0,299.119,173.7,23.887,23.887,0,0,0,323,197.59Z" transform="translate(202.014 115.117)"/><path class="b" d="M335.357,313.006a17.319,17.319,0,0,0,17.317,17.321A17.32,17.32,0,0,0,335.357,313.006Z" transform="translate(228.776 217.993)"/><path class="b" d="M325.132,293.081a26.873,26.873,0,0,0-26.872,26.875A26.873,26.873,0,0,0,325.132,293.081Z" transform="translate(201.38 203.278)"/><path class="b" d="M370.393,382.4a14.929,14.929,0,0,0,14.928,14.932A14.931,14.931,0,0,0,370.393,382.4Z" transform="translate(254.649 269.24)"/><path class="b" d="M385.335,265.448a22.694,22.694,0,0,0,22.691-22.7A22.693,22.693,0,0,0,385.335,265.448Z" transform="translate(265.684 166.111)"/><path class="b" d="M404.57,37.04A15.528,15.528,0,0,0,420.1,21.512,15.527,15.527,0,0,0,404.57,37.04Z" transform="translate(279.889 2.727)"/><path class="b" d="M267.652,209.6a18.512,18.512,0,0,0-18.512,18.513A18.512,18.512,0,0,0,267.652,209.6Z" transform="translate(165.106 141.629)"/><path class="b" d="M352.016,297.248a19.11,19.11,0,0,0,19.109-19.111A19.11,19.11,0,0,0,352.016,297.248Z" transform="translate(241.078 192.242)"/><path class="b" d="M221.872,130.8A26.574,26.574,0,0,0,195.3,104.22,26.574,26.574,0,0,0,221.872,130.8Z" transform="translate(125.344 63.806)"/><path class="b" d="M386.537,329.84a18.512,18.512,0,0,0,18.511,18.513A18.512,18.512,0,0,0,386.537,329.84Z" transform="translate(266.571 230.425)"/><path class="b" d="M373.251,110.429a22.1,22.1,0,0,0-22.094-22.1A22.1,22.1,0,0,0,373.251,110.429Z" transform="translate(240.444 52.072)"/><path class="b" d="M366.786,114.258a27.472,27.472,0,0,0,27.47-27.473A27.471,27.471,0,0,0,366.786,114.258Z" transform="translate(251.986 50.931)"/><path class="b" d="M332.351,183.179a27.771,27.771,0,0,0,27.769-27.772A27.77,27.77,0,0,0,332.351,183.179Z" transform="translate(226.556 101.607)"/><path class="b" d="M372.827,174.388a21.5,21.5,0,0,0-21.5,21.5A21.5,21.5,0,0,0,372.827,174.388Z" transform="translate(240.571 115.625)"/><path class="b" d="M338.265,71.411a21.2,21.2,0,0,0-21.2,21.2A21.2,21.2,0,0,0,338.265,71.411Z" transform="translate(215.268 39.577)"/><path class="b" d="M300.922,72.885a17.619,17.619,0,0,0,17.616-17.62A17.618,17.618,0,0,0,300.922,72.885Z" transform="translate(203.346 27.654)"/><path class="b" d="M327.047,98.57a29.561,29.561,0,0,0-29.56-29.563A29.561,29.561,0,0,0,327.047,98.57Z" transform="translate(200.809 37.802)"/><path class="b" d="M421.573,260.767A16.124,16.124,0,0,0,437.7,244.642,16.124,16.124,0,0,0,421.573,260.767Z" transform="translate(292.445 167.507)"/><path class="b" d="M385.764,363.421a21.2,21.2,0,0,0,21.2,21.2A21.2,21.2,0,0,0,385.764,363.421Z" transform="translate(266.001 255.224)"/><path class="b" d="M385.85,367.234a20.9,20.9,0,0,0,20.9-20.9A20.9,20.9,0,0,0,385.85,367.234Z" transform="translate(266.064 242.602)"/><path class="b" d="M335.958,242.953a15.229,15.229,0,0,0,15.227-15.231A15.228,15.228,0,0,0,335.958,242.953Z" transform="translate(229.219 155.011)"/><path class="b" d="M343.37,206.766a28.368,28.368,0,0,0-28.365,28.37A28.368,28.368,0,0,0,343.37,206.766Z" transform="translate(213.746 139.536)"/><path class="b" d="M360.544,235.136a28.368,28.368,0,0,0-28.365-28.37A28.368,28.368,0,0,0,360.544,235.136Z" transform="translate(226.429 139.536)"/><path class="b" d="M386.708,295.657a17.918,17.918,0,0,0,17.915,17.919A17.917,17.917,0,0,0,386.708,295.657Z" transform="translate(266.698 205.181)"/><path class="b" d="M314.576,360.93a29.859,29.859,0,0,0,29.857,29.862A29.86,29.86,0,0,0,314.576,360.93Z" transform="translate(213.429 253.384)"/><path class="b" d="M318.354,364.255a16.721,16.721,0,0,0,16.721-16.723A16.722,16.722,0,0,0,318.354,364.255Z" transform="translate(216.219 243.49)"/><path class="b" d="M256.434,293.081a26.873,26.873,0,0,0-26.872,26.875A26.873,26.873,0,0,0,256.434,293.081Z" transform="translate(150.647 203.278)"/><path class="b" d="M232.224,278.566a17.619,17.619,0,0,0,17.616,17.62A17.619,17.619,0,0,0,232.224,278.566Z" transform="translate(152.613 192.559)"/><path class="b" d="M267.26,347.961a15.229,15.229,0,0,0,15.228,15.231A15.23,15.23,0,0,0,267.26,347.961Z" transform="translate(178.487 243.807)"/><path class="b" d="M166.945,139.948a21.8,21.8,0,0,0-21.8,21.8A21.8,21.8,0,0,0,166.945,139.948Z" transform="translate(88.309 90.191)"/><path class="b" d="M169.284,181.265A25.082,25.082,0,0,0,144.2,156.18,25.082,25.082,0,0,0,169.284,181.265Z" transform="translate(87.612 102.178)"/><path class="b" d="M196.5,110.642a22.4,22.4,0,0,0,22.393-22.4A22.4,22.4,0,0,0,196.5,110.642Z" transform="translate(126.232 52.009)"/><path class="b" d="M335.288,38.26a17.02,17.02,0,0,0-17.02,17.022A17.021,17.021,0,0,0,335.288,38.26Z" transform="translate(216.155 15.095)"/><path class="b" d="M334.756,74.16a19.409,19.409,0,0,0,19.407-19.41A19.409,19.409,0,0,0,334.756,74.16Z" transform="translate(228.332 27.273)"/><path class="b" d="M344.22,81.393A29.56,29.56,0,0,0,314.662,51.83,29.561,29.561,0,0,0,344.22,81.393Z" transform="translate(213.492 25.117)"/><path class="b" d="M230.752,176.277a14.931,14.931,0,0,0-14.93,14.932A14.932,14.932,0,0,0,230.752,176.277Z" transform="translate(140.5 117.02)"/><path class="b" d="M447.055,69.093a29.262,29.262,0,0,0-29.261,29.264A29.262,29.262,0,0,0,447.055,69.093Z" transform="translate(289.654 37.865)"/><path class="b" d="M264.169,147.548a25.976,25.976,0,0,0,25.975-25.98A25.977,25.977,0,0,0,264.169,147.548Z" transform="translate(176.204 76.618)"/><path class="b" d="M299.806,277.45a21.5,21.5,0,0,0,21.5,21.5A21.5,21.5,0,0,0,299.806,277.45Z" transform="translate(202.521 191.735)"/><path class="b" d="M118.355,61.663a25.979,25.979,0,0,0-25.977-25.98A25.978,25.978,0,0,0,118.355,61.663Z" transform="translate(49.338 13.192)"/><path class="b" d="M101.179,35.683A25.977,25.977,0,0,0,75.2,61.663,25.976,25.976,0,0,0,101.179,35.683Z" transform="translate(36.655 13.192)"/><path class="b" d="M167.158,144.783a22.1,22.1,0,0,0-22.094-22.1A22.1,22.1,0,0,0,167.158,144.783Z" transform="translate(88.246 77.443)"/><path class="b" d="M68.531,46.188A28.366,28.366,0,0,0,40.168,17.819,28.366,28.366,0,0,0,68.531,46.188Z" transform="translate(10.781)"/><path class="b" d="M270.63,105.336a22.694,22.694,0,0,0-22.691,22.7A22.694,22.694,0,0,0,270.63,105.336Z" transform="translate(164.218 64.63)"/><path class="b" d="M273.4,113.619a26.575,26.575,0,0,0-26.575-26.576A26.575,26.575,0,0,0,273.4,113.619Z" transform="translate(163.393 51.121)"/><path class="b" d="M232.31,107.026a17.32,17.32,0,0,0,17.317-17.321A17.319,17.319,0,0,0,232.31,107.026Z" transform="translate(152.676 53.087)"/><path class="b" d="M314.576,292.222a29.859,29.859,0,0,0,29.857,29.862A29.859,29.859,0,0,0,314.576,292.222Z" transform="translate(213.429 202.644)"/><path class="b" d="M361.609,292.222a29.859,29.859,0,0,0-29.859,29.862A29.86,29.86,0,0,0,361.609,292.222Z" transform="translate(226.112 202.644)"/><path class="b" d="M335.529,278.824a16.722,16.722,0,0,0,16.719,16.723A16.722,16.722,0,0,0,335.529,278.824Z" transform="translate(228.903 192.75)"/><path class="b" d="M317.152,298.526a20.9,20.9,0,0,0,20.9-20.9A20.9,20.9,0,0,0,317.152,298.526Z" transform="translate(215.331 191.862)"/><path class="b" d="M337.2,211.789a19.707,19.707,0,0,0-19.706-19.709A19.708,19.708,0,0,0,337.2,211.789Z" transform="translate(215.585 128.69)"/><path class="b" d="M343.157,172.5a28.069,28.069,0,0,0-28.066,28.071A28.069,28.069,0,0,0,343.157,172.5Z" transform="translate(213.809 114.229)"/><path class="b" d="M359.481,199.717a26.873,26.873,0,0,0-26.872-26.875A26.873,26.873,0,0,0,359.481,199.717Z" transform="translate(226.746 114.483)"/><path class="b" d="M334.67,415.381a19.708,19.708,0,0,0,19.706,19.709A19.708,19.708,0,0,0,334.67,415.381Z" transform="translate(228.268 293.596)"/><path class="b" d="M108.951,131.861a28.067,28.067,0,0,0,28.066-28.071A28.069,28.069,0,0,0,108.951,131.861Z" transform="translate(61.577 63.489)"/><path class="b" d="M232.653,71.82a16.126,16.126,0,0,0,16.124-16.126A16.126,16.126,0,0,0,232.653,71.82Z" transform="translate(152.93 27.97)"/><path class="b" d="M267.652,72.184A18.514,18.514,0,0,0,249.141,90.7,18.513,18.513,0,0,0,267.652,72.184Z" transform="translate(165.106 40.148)"/><path class="b" d="M251.755,91.976a20.306,20.306,0,0,0-20.3-20.307A20.306,20.306,0,0,0,251.755,91.976Z" transform="translate(152.042 39.768)"/><path class="b" d="M356.291,328.723a22.4,22.4,0,0,0-22.394,22.4A22.4,22.4,0,0,0,356.291,328.723Z" transform="translate(227.697 229.6)"/><path class="b" d="M351.5,363.507a20.9,20.9,0,0,0,20.9,20.9A20.9,20.9,0,0,0,351.5,363.507Z" transform="translate(240.698 255.287)"/><path class="b" d="M392.554,362.3a25.083,25.083,0,0,0-25.081,25.085A25.083,25.083,0,0,0,392.554,362.3Z" transform="translate(252.493 254.399)"/><path class="b" d="M370.135,347.79a15.826,15.826,0,0,0,15.826,15.827A15.827,15.827,0,0,0,370.135,347.79Z" transform="translate(254.459 243.681)"/><path class="b" d="M349.182,372.978a28.964,28.964,0,0,0,28.961-28.967A28.965,28.965,0,0,0,349.182,372.978Z" transform="translate(238.985 240.89)"/><path class="b" d="M418.052,441.26a28.367,28.367,0,0,0,28.365-28.369A28.367,28.367,0,0,0,418.052,441.26Z" transform="translate(289.845 291.757)"/><path class="b" d="M421.229,398.891a17.319,17.319,0,0,0,17.317,17.321A17.319,17.319,0,0,0,421.229,398.891Z" transform="translate(292.191 281.418)"/><path class="b" d="M84.855,96.868A27.172,27.172,0,0,0,57.686,69.694,27.172,27.172,0,0,0,84.855,96.868Z" transform="translate(23.718 38.309)"/><path class="b" d="M96.5,74.16A19.409,19.409,0,0,0,77.093,54.75,19.409,19.409,0,0,0,96.5,74.16Z" transform="translate(38.05 27.273)"/><path class="b" d="M128.748,39.593a19.111,19.111,0,0,0,19.109-19.111A19.109,19.109,0,0,0,128.748,39.593Z" transform="translate(76.197 1.967)"/><path class="b" d="M377.506,45.975a28.068,28.068,0,0,0-28.066-28.07A28.068,28.068,0,0,0,377.506,45.975Z" transform="translate(239.176 0.064)"/><path class="b" d="M335.7,37.466A16.124,16.124,0,0,0,351.823,21.34,16.124,16.124,0,0,0,335.7,37.466Z" transform="translate(229.029 2.6)"/><path class="b" d="M361.4,64.216a29.561,29.561,0,0,0-29.56-29.563A29.561,29.561,0,0,0,361.4,64.216Z" transform="translate(226.175 12.432)"/><path class="b" d="M272.118,173.443a24.783,24.783,0,0,0-24.78,24.786A24.783,24.783,0,0,0,272.118,173.443Z" transform="translate(163.774 114.927)"/><path class="b" d="M266.59,209.875a17.021,17.021,0,0,0-17.02-17.022A17.021,17.021,0,0,0,266.59,209.875Z" transform="translate(165.423 129.261)"/><path class="b" d="M197.253,38.517A16.124,16.124,0,0,0,181.13,54.643,16.124,16.124,0,0,0,197.253,38.517Z" transform="translate(114.88 15.285)"/><path class="b" d="M201.932,76.5a22.693,22.693,0,0,0-22.691-22.7A22.694,22.694,0,0,0,201.932,76.5Z" transform="translate(113.485 26.575)"/><path class="b" d="M132.55,75.862a21.8,21.8,0,0,0-21.8-21.8A21.8,21.8,0,0,0,132.55,75.862Z" transform="translate(62.909 26.766)"/><path class="b" d="M110.411,93.889A22.992,22.992,0,0,0,133.4,70.9,22.993,22.993,0,0,0,110.411,93.889Z" transform="translate(62.655 39.197)"/><path class="b" d="M94.01,74.8a20.3,20.3,0,0,0,20.3-20.306A20.3,20.3,0,0,0,94.01,74.8Z" transform="translate(50.543 27.083)"/><path class="b" d="M350.556,266.511a24.187,24.187,0,0,0,24.186-24.188A24.187,24.187,0,0,0,350.556,266.511Z" transform="translate(240 165.794)"/><path class="b" d="M84.855,131.222a27.172,27.172,0,0,0-27.169-27.174A27.172,27.172,0,0,0,84.855,131.222Z" transform="translate(23.718 63.679)"/><path class="b" d="M369.792,38.1A17.021,17.021,0,0,0,386.81,21.083,17.018,17.018,0,0,0,369.792,38.1Z" transform="translate(254.205 2.41)"/><path class="b" d="M441.736,36.886a21.8,21.8,0,0,0-21.8,21.8A21.8,21.8,0,0,0,441.736,36.886Z" transform="translate(291.24 14.081)"/><path class="b" d="M437.27,71.394a15.527,15.527,0,0,0-15.526-15.528A15.528,15.528,0,0,0,437.27,71.394Z" transform="translate(292.572 28.097)"/><path class="b" d="M418.052,338.2a28.367,28.367,0,0,0,28.365-28.369A28.366,28.366,0,0,0,418.052,338.2Z" transform="translate(289.845 215.647)"/><path class="b" d="M419.168,293.768a24.485,24.485,0,0,0,24.483,24.487A24.485,24.485,0,0,0,419.168,293.768Z" transform="translate(290.669 203.786)"/><path class="b" d="M351.823,261.819A16.124,16.124,0,0,0,335.7,277.943,16.124,16.124,0,0,0,351.823,261.819Z" transform="translate(229.029 180.192)"/><path class="b" d="M318.526,261.819a16.124,16.124,0,0,0,16.123,16.125A16.124,16.124,0,0,0,318.526,261.819Z" transform="translate(216.346 180.192)"/><path class="b" d="M146.953,54.217a15.528,15.528,0,0,0,15.526-15.528A15.527,15.527,0,0,0,146.953,54.217Z" transform="translate(89.641 15.412)"/><path class="b" d="M182.418,56.983a19.409,19.409,0,0,0-19.407-19.41A19.409,19.409,0,0,0,182.418,56.983Z" transform="translate(101.5 14.588)"/><path class="b" d="M171.2,80.117a27.77,27.77,0,0,0-27.767-27.772A27.77,27.77,0,0,0,171.2,80.117Z" transform="translate(87.041 25.497)"/><path class="b" d="M161.98,76.712a22.992,22.992,0,0,0,22.992-22.993A22.993,22.993,0,0,0,161.98,76.712Z" transform="translate(100.738 26.512)"/><path class="b" d="M200.656,105.851a20.9,20.9,0,0,0-20.9,20.9A20.9,20.9,0,0,0,200.656,105.851Z" transform="translate(113.866 65.011)"/><path class="b" d="M198.954,107.876a18.513,18.513,0,0,0-18.511-18.515A18.513,18.513,0,0,0,198.954,107.876Z" transform="translate(114.373 52.833)"/><path class="b" d="M163.1,106.367A19.11,19.11,0,0,0,182.2,125.478,19.11,19.11,0,0,0,163.1,106.367Z" transform="translate(101.563 65.392)"/><path class="b" d="M198.317,175.5a17.618,17.618,0,0,0-17.616,17.62A17.619,17.619,0,0,0,198.317,175.5Z" transform="translate(114.564 116.449)"/><path class="b" d="M229.991,241.979a25.382,25.382,0,0,0,25.38,25.384A25.382,25.382,0,0,0,229.991,241.979Z" transform="translate(150.964 165.54)"/><path class="b" d="M231.389,140.315a15.825,15.825,0,0,0-15.824-15.827A15.825,15.825,0,0,0,231.389,140.315Z" transform="translate(140.31 78.774)"/><path class="b" d="M235.856,105.508a22.1,22.1,0,0,0-22.094,22.1A22.1,22.1,0,0,0,235.856,105.508Z" transform="translate(138.979 64.757)"/><path class="b" d="M421.057,399.46a17.916,17.916,0,0,0,17.915-17.917A17.916,17.916,0,0,0,421.057,399.46Z" transform="translate(292.064 268.607)"/><path class="b" d="M419.883,365.139a15.228,15.228,0,0,0-15.227,15.229A15.229,15.229,0,0,0,419.883,365.139Z" transform="translate(279.952 256.493)"/><path class="b" d="M126.086,172.412a28.368,28.368,0,0,0,28.365,28.37A28.368,28.368,0,0,0,126.086,172.412Z" transform="translate(74.231 114.165)"/><path class="b" d="M180.079,193.111a16.123,16.123,0,0,0-16.123,16.124A16.124,16.124,0,0,0,180.079,193.111Z" transform="translate(102.198 129.451)"/><path class="b" d="M216.767,226.52a19.409,19.409,0,0,0-19.407,19.41A19.409,19.409,0,0,0,216.767,226.52Z" transform="translate(126.866 154.124)"/><path class="b" d="M198.219,244.556a16.423,16.423,0,0,0,16.422,16.424A16.424,16.424,0,0,0,198.219,244.556Z" transform="translate(127.5 167.443)"/><path class="b" d="M237.133,242.409A23.888,23.888,0,0,0,213.246,266.3,23.888,23.888,0,0,0,237.133,242.409Z" transform="translate(138.598 165.858)"/><path class="b" d="M292.272,63.791A28.964,28.964,0,0,0,263.31,34.824,28.964,28.964,0,0,0,292.272,63.791Z" transform="translate(175.569 12.558)"/><path class="b" d="M384.046,406.054a27.172,27.172,0,0,0,27.171-27.174A27.173,27.173,0,0,0,384.046,406.054Z" transform="translate(264.732 266.64)"/><path class="b" d="M404.141,381.8a17.018,17.018,0,0,0,17.018,17.022A17.021,17.021,0,0,0,404.141,381.8Z" transform="translate(279.572 268.796)"/><path class="b" d="M233.729,72.013A19.11,19.11,0,0,0,214.62,91.124,19.11,19.11,0,0,0,233.729,72.013Z" transform="translate(139.612 40.022)"/><path class="b" d="M194.612,80.968A28.964,28.964,0,0,0,223.574,52,28.965,28.965,0,0,0,194.612,80.968Z" transform="translate(124.837 25.243)"/><path class="b" d="M422.009,56.132A18.214,18.214,0,0,0,403.8,37.916,18.214,18.214,0,0,0,422.009,56.132Z" transform="translate(279.318 14.841)"/><path class="b" d="M402.337,76.925a23.289,23.289,0,0,0,23.289-23.292A23.292,23.292,0,0,0,402.337,76.925Z" transform="translate(278.24 26.448)"/><path class="b" d="M388.3,398.376a19.111,19.111,0,0,0-19.109,19.111A19.11,19.11,0,0,0,388.3,398.376Z" transform="translate(253.761 281.038)"/><path class="b" d="M386.537,398.548a18.513,18.513,0,0,0,18.511,18.515A18.513,18.513,0,0,0,386.537,398.548Z" transform="translate(266.571 281.165)"/><path class="b" d="M403.11,415.124a20.6,20.6,0,0,0,20.6,20.6A20.6,20.6,0,0,0,403.11,415.124Z" transform="translate(278.811 293.406)"/><path class="b" d="M386.537,434.24a18.513,18.513,0,0,0,18.511-18.515A18.513,18.513,0,0,0,386.537,434.24Z" transform="translate(266.571 293.85)"/><path class="b" d="M300.149,415.21a20.306,20.306,0,0,0,20.3,20.306A20.3,20.3,0,0,0,300.149,415.21Z" transform="translate(202.775 293.469)"/><path class="b" d="M369.448,312.749a18.216,18.216,0,0,0,18.214,18.216A18.215,18.215,0,0,0,369.448,312.749Z" transform="translate(253.951 217.803)"/><path class="b" d="M349.955,336.707a26.277,26.277,0,0,0,26.276-26.277A26.276,26.276,0,0,0,349.955,336.707Z" transform="translate(239.556 216.09)"/><path class="b" d="M349.526,327.177a27.77,27.77,0,0,0,27.767,27.772A27.77,27.77,0,0,0,349.526,327.177Z" transform="translate(239.239 228.458)"/><path class="b" d="M283.337,399.149a16.423,16.423,0,0,0-16.42,16.424A16.422,16.422,0,0,0,283.337,399.149Z" transform="translate(178.233 281.609)"/><path class="b" d="M249.742,399.149a16.422,16.422,0,0,0,16.422,16.424A16.423,16.423,0,0,0,249.742,399.149Z" transform="translate(165.55 281.609)"/><path class="b" d="M170.137,113.407a26.278,26.278,0,0,0-26.276-26.279A26.277,26.277,0,0,0,170.137,113.407Z" transform="translate(87.358 51.184)"/><path class="b" d="M84.219,61.876A26.278,26.278,0,0,0,57.943,35.6,26.277,26.277,0,0,0,84.219,61.876Z" transform="translate(23.908 13.129)"/><path class="b" d="M284.828,125.053a18.515,18.515,0,0,0-18.513-18.515A18.514,18.514,0,0,0,284.828,125.053Z" transform="translate(177.789 65.518)"/><path class="b" d="M308.808,103.79a28.069,28.069,0,0,0-28.066,28.071A28.069,28.069,0,0,0,308.808,103.79Z" transform="translate(188.443 63.489)"/><path class="b" d="M264.684,111.918A24.186,24.186,0,0,0,288.868,87.73,24.186,24.186,0,0,0,264.684,111.918Z" transform="translate(176.584 51.629)"/><path class="b" d="M307.533,113.407a26.278,26.278,0,0,0-26.276-26.279A26.277,26.277,0,0,0,307.533,113.407Z" transform="translate(188.823 51.184)"/><path class="b" d="M297.831,252.313a28.367,28.367,0,0,0,28.363-28.37A28.366,28.366,0,0,0,297.831,252.313Z" transform="translate(201.063 152.221)"/><path class="b" d="M304.129,281.773a21.5,21.5,0,0,0-21.5-21.5A21.5,21.5,0,0,0,304.129,281.773Z" transform="translate(189.838 179.05)"/><path class="b" d="M327.047,257.954a29.56,29.56,0,0,0-29.56,29.563A29.561,29.561,0,0,0,327.047,257.954Z" transform="translate(200.809 177.337)"/><path class="b" d="M300.493,243.783A19.11,19.11,0,0,0,319.6,262.894,19.11,19.11,0,0,0,300.493,243.783Z" transform="translate(203.029 166.872)"/><path class="b" d="M298.689,44.06a25.38,25.38,0,0,0,25.38-25.382A25.381,25.381,0,0,0,298.689,44.06Z" transform="translate(201.697 0.634)"/><path class="b" d="M384.648,232.8a25.082,25.082,0,0,0,25.08-25.085A25.082,25.082,0,0,0,384.648,232.8Z" transform="translate(265.177 140.233)"/><path class="b" d="M387.236,227.478a17.619,17.619,0,0,0-17.616-17.62A17.619,17.619,0,0,0,387.236,227.478Z" transform="translate(254.079 141.819)"/><path class="b" d="M370.049,209.235a16.124,16.124,0,0,0,16.123-16.124A16.123,16.123,0,0,0,370.049,209.235Z" transform="translate(254.395 129.451)"/><path class="b" d="M64.7,70.9A22.993,22.993,0,0,0,41.713,93.889,22.992,22.992,0,0,0,64.7,70.9Z" transform="translate(11.922 39.197)"/><path class="b" d="M44.978,91.337a19.409,19.409,0,0,0-19.409-19.41A19.409,19.409,0,0,0,44.978,91.337Z" transform="translate(0 39.958)"/><path class="b" d="M67.469,79.478A26.873,26.873,0,0,0,40.6,52.6,26.873,26.873,0,0,0,67.469,79.478Z" transform="translate(11.098 25.688)"/><path class="b" d="M202.358,145.633a23.29,23.29,0,0,0-23.289-23.292A23.29,23.29,0,0,0,202.358,145.633Z" transform="translate(113.358 77.189)"/><path class="b" d="M109.724,164.3a25.382,25.382,0,0,0,25.38-25.384A25.382,25.382,0,0,0,109.724,164.3Z" transform="translate(62.148 89.43)"/><path class="b" d="M231.108,41.295a21.5,21.5,0,0,0,21.5-21.5A21.5,21.5,0,0,0,231.108,41.295Z" transform="translate(151.789 1.459)"/><path class="b" d="M249.414,55.282A17.02,17.02,0,0,0,232.4,38.26,17.021,17.021,0,0,0,249.414,55.282Z" transform="translate(152.74 15.095)"/><path class="b" d="M271.056,36.456a23.292,23.292,0,0,0-23.289,23.292A23.29,23.29,0,0,0,271.056,36.456Z" transform="translate(164.091 13.763)"/><path class="b" d="M265.457,41.295a21.5,21.5,0,0,0,21.5-21.5A21.5,21.5,0,0,0,265.457,41.295Z" transform="translate(177.155 1.459)"/><path class="b" d="M265.951,37.466A16.124,16.124,0,0,0,249.828,21.34,16.124,16.124,0,0,0,265.951,37.466Z" transform="translate(165.613 2.6)"/><path class="b" d="M400.792,115.109a28.666,28.666,0,0,0,28.663-28.668A28.665,28.665,0,0,0,400.792,115.109Z" transform="translate(277.099 50.677)"/><path class="b" d="M407.6,110.429a22.1,22.1,0,0,0-22.094-22.1A22.1,22.1,0,0,0,407.6,110.429Z" transform="translate(265.81 52.072)"/><path class="b" d="M240.11,45.975a28.068,28.068,0,0,0-28.066-28.07A28.068,28.068,0,0,0,240.11,45.975Z" transform="translate(137.71 0.064)"/><path class="b" d="M237.982,35.941A25.082,25.082,0,0,0,212.9,61.026,25.082,25.082,0,0,0,237.982,35.941Z" transform="translate(138.344 13.383)"/><path class="b" d="M392.341,95.167a24.784,24.784,0,0,0-24.782-24.786A24.784,24.784,0,0,0,392.341,95.167Z" transform="translate(252.556 38.817)"/><path class="b" d="M408.452,76.925a23.292,23.292,0,0,0-23.289-23.292A23.289,23.289,0,0,0,408.452,76.925Z" transform="translate(265.557 26.448)"/><path class="b" d="M403.347,175.934a16.123,16.123,0,0,0-16.123,16.125A16.124,16.124,0,0,0,403.347,175.934Z" transform="translate(267.079 116.766)"/><path class="b" d="M401.393,216.681a26.575,26.575,0,0,0,26.573-26.576A26.574,26.574,0,0,0,401.393,216.681Z" transform="translate(277.542 127.232)"/><path class="b" d="M409.727,215.619a25.082,25.082,0,0,0-25.08-25.085A25.082,25.082,0,0,0,409.727,215.619Z" transform="translate(265.177 127.548)"/><path class="b" d="M418.052,372.552a28.367,28.367,0,0,0,28.365-28.369A28.366,28.366,0,0,0,418.052,372.552Z" transform="translate(289.845 241.017)"/><path class="b" d="M420.456,363.764a20.007,20.007,0,0,0,20,20.008A20.007,20.007,0,0,0,420.456,363.764Z" transform="translate(291.62 255.477)"/><path class="b" d="M249.627,227.121a17.32,17.32,0,0,0-17.317,17.321A17.32,17.32,0,0,0,249.627,227.121Z" transform="translate(152.676 154.568)"/><path class="b" d="M236.92,248.908a23.589,23.589,0,0,0-23.588-23.59A23.589,23.589,0,0,0,236.92,248.908Z" transform="translate(138.661 153.236)"/><path class="b" d="M367.044,182.327a26.574,26.574,0,0,0,26.573-26.576A26.574,26.574,0,0,0,367.044,182.327Z" transform="translate(252.176 101.862)"/><path class="b" d="M194.7,137.972a28.665,28.665,0,0,0,28.662,28.668A28.665,28.665,0,0,0,194.7,137.972Z" transform="translate(124.9 88.732)"/><path class="b" d="M217.831,157.382a20.9,20.9,0,0,0-20.9,20.9A20.9,20.9,0,0,0,217.831,157.382Z" transform="translate(126.549 103.066)"/><path class="b" d="M197.679,175.308a16.721,16.721,0,0,0-16.721-16.723A16.722,16.722,0,0,0,197.679,175.308Z" transform="translate(114.753 103.954)"/><path class="b" d="M204.273,138.745a25.979,25.979,0,0,0-25.977,25.98A25.978,25.978,0,0,0,204.273,138.745Z" transform="translate(112.787 89.303)"/><path class="b" d="M374.742,104.907a24.187,24.187,0,0,0-24.186,24.188A24.187,24.187,0,0,0,374.742,104.907Z" transform="translate(240 64.314)"/><path class="b" d="M420.628,260.874a19.409,19.409,0,0,0,19.407,19.41A19.409,19.409,0,0,0,420.628,260.874Z" transform="translate(291.747 179.494)"/><path class="b" d="M427.541,302.142a25.977,25.977,0,0,0-25.977-25.98A25.979,25.979,0,0,0,427.541,302.142Z" transform="translate(277.669 190.784)"/><path class="b" d="M305.4,70.81A23.292,23.292,0,0,0,282.116,94.1,23.29,23.29,0,0,0,305.4,70.81Z" transform="translate(189.458 39.133)"/><path class="b" d="M289.294,224.974a24.784,24.784,0,0,0-24.782,24.786A24.784,24.784,0,0,0,289.294,224.974Z" transform="translate(176.457 152.982)"/><path class="b" d="M304.979,248.271a22.694,22.694,0,0,0-22.691-22.7A22.693,22.693,0,0,0,304.979,248.271Z" transform="translate(189.585 153.426)"/><path class="b" d="M372.4,75.224a20.9,20.9,0,0,0-20.9-20.9A20.9,20.9,0,0,0,372.4,75.224Z" transform="translate(240.698 26.956)"/><path class="b" d="M378.782,34.567a29.859,29.859,0,0,0-29.857,29.862A29.86,29.86,0,0,0,378.782,34.567Z" transform="translate(238.795 12.368)"/><path class="b" d="M366.7,80.117a27.77,27.77,0,0,0,27.767-27.772A27.77,27.77,0,0,0,366.7,80.117Z" transform="translate(251.922 25.497)"/><path class="b" d="M394.256,303.205a27.472,27.472,0,0,0-27.47-27.473A27.471,27.471,0,0,0,394.256,303.205Z" transform="translate(251.986 190.466)"/><path class="b" d="M386.708,296.4a17.917,17.917,0,0,0,17.915-17.919A17.918,17.918,0,0,0,386.708,296.4Z" transform="translate(266.698 192.496)"/><path class="b" d="M366.7,286.241a27.77,27.77,0,0,0,27.767-27.772A27.77,27.77,0,0,0,366.7,286.241Z" transform="translate(251.922 177.718)"/><path class="b" d="M401.908,181.052a24.784,24.784,0,0,0,24.782-24.786A24.784,24.784,0,0,0,401.908,181.052Z" transform="translate(277.923 102.242)"/><path class="b" d="M437.7,174.881a16.123,16.123,0,0,0-16.123-16.124A16.124,16.124,0,0,0,437.7,174.881Z" transform="translate(292.445 104.081)"/><path class="b" d="M285.891,329.41a20.007,20.007,0,0,0-20,20.008A20.007,20.007,0,0,0,285.891,329.41Z" transform="translate(177.472 230.107)"/><path class="b" d="M267.26,313.607a15.229,15.229,0,0,0,15.228,15.231A15.23,15.23,0,0,0,267.26,313.607Z" transform="translate(178.487 218.437)"/><path class="b" d="M268.715,312.233a20.006,20.006,0,0,0-20,20.008A20.005,20.005,0,0,0,268.715,312.233Z" transform="translate(164.789 217.422)"/></g></svg>